<mxfile host="app.diagrams.net" modified="2022-11-30T06:11:21.492Z" agent="5.0 (X11; Linux x86_64) AppleWebKit/537.36 (KHTML, like Gecko) Chrome/107.0.0.0 Safari/537.36" etag="JkCgUN6RV6rbJSu4D6Ev" version="20.6.0" type="github">
  <diagram id="Z430kauFOixNenx0ClLi" name="Page-1">
    <mxGraphModel dx="4868" dy="2708" grid="1" gridSize="10" guides="1" tooltips="1" connect="1" arrows="1" fold="1" page="1" pageScale="1" pageWidth="850" pageHeight="1100" math="0" shadow="0">
      <root>
        <mxCell id="0" />
        <mxCell id="1" parent="0" />
        <mxCell id="dgDgLwtVGSBD31zoPSUn-21" value="" style="rounded=1;whiteSpace=wrap;html=1;dashed=1;fillColor=none;strokeWidth=3;comic=0;" vertex="1" parent="1">
          <mxGeometry x="-1407" y="-820" width="830" height="1710" as="geometry" />
        </mxCell>
        <mxCell id="T4uXMFoD5u3B1nQVuzlc-210" value="trajectory_follower" style="rounded=1;whiteSpace=wrap;html=1;fillColor=#ffe6cc;strokeColor=#d79b00;verticalAlign=top;" parent="1" vertex="1">
          <mxGeometry x="-450" y="-210" width="570" height="440" as="geometry" />
        </mxCell>
        <mxCell id="T4uXMFoD5u3B1nQVuzlc-1" value="/initialpose" style="edgeStyle=orthogonalEdgeStyle;rounded=0;comic=0;jumpStyle=arc;orthogonalLoop=1;jettySize=auto;html=1;startArrow=classic;startFill=1;endArrow=none;endFill=0;exitX=0;exitY=0.5;exitDx=0;exitDy=0;" parent="1" source="T4uXMFoD5u3B1nQVuzlc-50" target="T4uXMFoD5u3B1nQVuzlc-5" edge="1">
          <mxGeometry relative="1" as="geometry">
            <mxPoint x="-2260" y="430" as="targetPoint" />
            <mxPoint x="-2350" y="380" as="sourcePoint" />
            <Array as="points">
              <mxPoint x="-2350" y="323" />
              <mxPoint x="-2350" y="328" />
            </Array>
          </mxGeometry>
        </mxCell>
        <mxCell id="T4uXMFoD5u3B1nQVuzlc-2" value="/vehicle/status/velocity_report" style="edgeStyle=orthogonalEdgeStyle;rounded=0;comic=0;jumpStyle=arc;orthogonalLoop=1;jettySize=auto;html=1;exitX=0.5;exitY=0;exitDx=0;exitDy=0;startArrow=classic;startFill=1;endArrow=none;endFill=0;" parent="1" source="T4uXMFoD5u3B1nQVuzlc-55" edge="1">
          <mxGeometry relative="1" as="geometry">
            <mxPoint x="-1570" y="130" as="targetPoint" />
            <Array as="points">
              <mxPoint x="-1590" y="130" />
            </Array>
            <mxPoint as="offset" />
          </mxGeometry>
        </mxCell>
        <mxCell id="T4uXMFoD5u3B1nQVuzlc-3" value="&amp;lt;pose_initializer_srv&amp;gt;" style="edgeStyle=orthogonalEdgeStyle;rounded=0;comic=0;sketch=0;jumpStyle=arc;orthogonalLoop=1;jettySize=auto;html=1;exitX=1;exitY=0.25;exitDx=0;exitDy=0;entryX=0;entryY=0.5;entryDx=0;entryDy=0;endArrow=none;endFill=0;dashed=1;" parent="1" source="T4uXMFoD5u3B1nQVuzlc-50" target="T4uXMFoD5u3B1nQVuzlc-46" edge="1">
          <mxGeometry relative="1" as="geometry">
            <Array as="points">
              <mxPoint x="-2120" y="320" />
              <mxPoint x="-2120" y="500" />
            </Array>
          </mxGeometry>
        </mxCell>
        <mxCell id="T4uXMFoD5u3B1nQVuzlc-4" value="vehicle_velocity_converter/&lt;br&gt;twist_with_covariance" style="edgeStyle=orthogonalEdgeStyle;rounded=0;comic=0;jumpStyle=arc;orthogonalLoop=1;jettySize=auto;html=1;exitX=1;exitY=0.5;exitDx=0;exitDy=0;startArrow=classic;startFill=1;endArrow=none;endFill=0;entryX=0.5;entryY=1;entryDx=0;entryDy=0;" parent="1" source="T4uXMFoD5u3B1nQVuzlc-52" target="T4uXMFoD5u3B1nQVuzlc-55" edge="1">
          <mxGeometry x="-0.1852" y="-20" relative="1" as="geometry">
            <mxPoint x="-1630" y="40" as="targetPoint" />
            <Array as="points">
              <mxPoint x="-1640" y="310" />
            </Array>
            <mxPoint x="21" y="-20" as="offset" />
            <mxPoint x="-1630" y="180" as="sourcePoint" />
          </mxGeometry>
        </mxCell>
        <mxCell id="T4uXMFoD5u3B1nQVuzlc-5" value="HMI" style="rounded=1;whiteSpace=wrap;html=1;fillColor=#bac8d3;strokeColor=#23445d;" parent="1" vertex="1">
          <mxGeometry x="-2530" y="302.5" width="120" height="40" as="geometry" />
        </mxCell>
        <mxCell id="T4uXMFoD5u3B1nQVuzlc-6" value="top/velodyne_packets" style="edgeStyle=elbowEdgeStyle;rounded=0;comic=0;jumpStyle=arc;orthogonalLoop=1;jettySize=auto;elbow=vertical;html=1;exitX=0.5;exitY=1;exitDx=0;exitDy=0;entryX=0.5;entryY=0;entryDx=0;entryDy=0;startArrow=none;startFill=0;endArrow=classic;endFill=1;" parent="1" source="T4uXMFoD5u3B1nQVuzlc-7" target="T4uXMFoD5u3B1nQVuzlc-11" edge="1">
          <mxGeometry relative="1" as="geometry" />
        </mxCell>
        <UserObject label="lidar_driver" tooltip="velodyneのdriverです。VLP16, VLP32, VLS128, Livoxなどなど、たくさん種類があります。" id="T4uXMFoD5u3B1nQVuzlc-7">
          <mxCell style="rounded=1;whiteSpace=wrap;html=1;comic=0;strokeColor=#9673a6;fillColor=#e1d5e7;sketch=0;" parent="1" vertex="1">
            <mxGeometry x="-1890" y="-730" width="120" height="50" as="geometry" />
          </mxCell>
        </UserObject>
        <mxCell id="T4uXMFoD5u3B1nQVuzlc-8" value="top/rectified/pointcloud" style="edgeStyle=elbowEdgeStyle;rounded=0;comic=0;jumpStyle=arc;orthogonalLoop=1;jettySize=auto;elbow=vertical;html=1;exitX=0.5;exitY=1;exitDx=0;exitDy=0;entryX=0.5;entryY=0;entryDx=0;entryDy=0;startArrow=none;startFill=0;endArrow=classic;endFill=1;" parent="1" source="T4uXMFoD5u3B1nQVuzlc-9" target="T4uXMFoD5u3B1nQVuzlc-16" edge="1">
          <mxGeometry relative="1" as="geometry" />
        </mxCell>
        <UserObject label="fix_distortion" tooltip="自車の回転によって生じたLiDAR点群の歪みを補正する。（リンクこれで合ってるっけ？）" link="https://github.com/autowarefoundation/autoware.universe/blob/main/sensing/pointcloud_preprocessor/docs/distortion-corrector.md" id="T4uXMFoD5u3B1nQVuzlc-9">
          <mxCell style="rounded=1;whiteSpace=wrap;html=1;comic=0;fillColor=#e1d5e7;strokeColor=#9673a6;sketch=0;" parent="1" vertex="1">
            <mxGeometry x="-1890" y="-410" width="120" height="30" as="geometry" />
          </mxCell>
        </UserObject>
        <mxCell id="T4uXMFoD5u3B1nQVuzlc-10" value="top/pointcloud_raw" style="edgeStyle=elbowEdgeStyle;rounded=0;comic=0;jumpStyle=arc;orthogonalLoop=1;jettySize=auto;elbow=vertical;html=1;exitX=0.5;exitY=1;exitDx=0;exitDy=0;entryX=0.5;entryY=0;entryDx=0;entryDy=0;startArrow=none;startFill=0;endArrow=classic;endFill=1;" parent="1" source="T4uXMFoD5u3B1nQVuzlc-11" target="T4uXMFoD5u3B1nQVuzlc-13" edge="1">
          <mxGeometry relative="1" as="geometry">
            <mxPoint x="-1830" y="-560" as="targetPoint" />
          </mxGeometry>
        </mxCell>
        <UserObject label="packets_to_&lt;br&gt;pointcloud" tooltip="velodyneのpacketをpointcloud型に変更する" id="T4uXMFoD5u3B1nQVuzlc-11">
          <mxCell style="rounded=1;whiteSpace=wrap;html=1;comic=0;fillColor=#e1d5e7;strokeColor=#9673a6;sketch=0;" parent="1" vertex="1">
            <mxGeometry x="-1890" y="-620" width="120" height="30" as="geometry" />
          </mxCell>
        </UserObject>
        <mxCell id="T4uXMFoD5u3B1nQVuzlc-12" value="top/self_cropped/pointcloud" style="edgeStyle=elbowEdgeStyle;rounded=0;comic=0;jumpStyle=arc;orthogonalLoop=1;jettySize=auto;elbow=vertical;html=1;exitX=0.5;exitY=1;exitDx=0;exitDy=0;entryX=0.5;entryY=0;entryDx=0;entryDy=0;startArrow=none;startFill=0;endArrow=classic;endFill=1;" parent="1" source="T4uXMFoD5u3B1nQVuzlc-13" target="T4uXMFoD5u3B1nQVuzlc-15" edge="1">
          <mxGeometry relative="1" as="geometry" />
        </mxCell>
        <UserObject label="crop_box_&lt;br&gt;filter_self" tooltip="自車の領域内にある点群を除去する。" link="https://github.com/autowarefoundation/autoware.universe/blob/main/sensing/pointcloud_preprocessor/docs/crop-box-filter.md" id="T4uXMFoD5u3B1nQVuzlc-13">
          <mxCell style="rounded=1;whiteSpace=wrap;html=1;comic=0;fillColor=#e1d5e7;strokeColor=#9673a6;sketch=0;" parent="1" vertex="1">
            <mxGeometry x="-1890" y="-550" width="120" height="30" as="geometry" />
          </mxCell>
        </UserObject>
        <mxCell id="T4uXMFoD5u3B1nQVuzlc-14" value="top/mirror_cropped/pointcloud" style="edgeStyle=elbowEdgeStyle;rounded=0;comic=0;jumpStyle=arc;orthogonalLoop=1;jettySize=auto;elbow=vertical;html=1;exitX=0.5;exitY=1;exitDx=0;exitDy=0;entryX=0.5;entryY=0;entryDx=0;entryDy=0;startArrow=none;startFill=0;endArrow=classic;endFill=1;" parent="1" source="T4uXMFoD5u3B1nQVuzlc-15" target="T4uXMFoD5u3B1nQVuzlc-9" edge="1">
          <mxGeometry relative="1" as="geometry" />
        </mxCell>
        <UserObject label="crop_box_&lt;br&gt;filter_mirror" tooltip="自車のサイドミラーの部分に当たった点群を除去する" link="https://github.com/autowarefoundation/autoware.universe/blob/main/sensing/pointcloud_preprocessor/docs/crop-box-filter.md" id="T4uXMFoD5u3B1nQVuzlc-15">
          <mxCell style="rounded=1;whiteSpace=wrap;html=1;comic=0;fillColor=#e1d5e7;strokeColor=#9673a6;sketch=0;" parent="1" vertex="1">
            <mxGeometry x="-1890" y="-480" width="120" height="30" as="geometry" />
          </mxCell>
        </UserObject>
        <UserObject label="ring_outlier_filter" tooltip="点群のノイズ処理を行う&#xa;（同一リングから得られたLiDARの点をクラスタリングし、点群数の少ないクラスタに属する点群はノイズとして除去される）" link="https://github.com/autowarefoundation/autoware.universe/blob/main/sensing/pointcloud_preprocessor/docs/ring-outlier-filter.md" id="T4uXMFoD5u3B1nQVuzlc-16">
          <mxCell style="rounded=1;whiteSpace=wrap;html=1;comic=0;fillColor=#e1d5e7;strokeColor=#9673a6;sketch=0;" parent="1" vertex="1">
            <mxGeometry x="-1890" y="-340" width="120" height="30" as="geometry" />
          </mxCell>
        </UserObject>
        <mxCell id="T4uXMFoD5u3B1nQVuzlc-17" value="lidar/*/velodyne_packets" style="edgeStyle=elbowEdgeStyle;rounded=0;comic=0;jumpStyle=arc;orthogonalLoop=1;jettySize=auto;elbow=vertical;html=1;exitX=0.5;exitY=1;exitDx=0;exitDy=0;entryX=0.5;entryY=0;entryDx=0;entryDy=0;startArrow=none;startFill=0;endArrow=classic;endFill=1;" parent="1" source="T4uXMFoD5u3B1nQVuzlc-18" target="T4uXMFoD5u3B1nQVuzlc-22" edge="1">
          <mxGeometry relative="1" as="geometry" />
        </mxCell>
        <mxCell id="T4uXMFoD5u3B1nQVuzlc-18" value="lidar_drivers&lt;br&gt;(left,right,front_right, front_left,rear)" style="rounded=1;whiteSpace=wrap;html=1;comic=0;strokeColor=#9673a6;fillColor=#e1d5e7;sketch=0;" parent="1" vertex="1">
          <mxGeometry x="-2060" y="-730" width="120" height="50" as="geometry" />
        </mxCell>
        <mxCell id="T4uXMFoD5u3B1nQVuzlc-19" value="&lt;span style=&quot;color: rgb(0 , 0 , 0) ; font-family: &amp;#34;helvetica&amp;#34; ; font-size: 11px ; font-style: normal ; font-weight: 400 ; letter-spacing: normal ; text-align: center ; text-indent: 0px ; text-transform: none ; word-spacing: 0px ; background-color: rgb(255 , 255 , 255) ; display: inline ; float: none&quot;&gt;*/rectified/pointcloud&lt;/span&gt;" style="edgeStyle=elbowEdgeStyle;rounded=0;comic=0;jumpStyle=arc;orthogonalLoop=1;jettySize=auto;elbow=vertical;html=1;exitX=0.5;exitY=1;exitDx=0;exitDy=0;entryX=0.5;entryY=0;entryDx=0;entryDy=0;startArrow=none;startFill=0;endArrow=classic;endFill=1;" parent="1" source="T4uXMFoD5u3B1nQVuzlc-20" target="T4uXMFoD5u3B1nQVuzlc-27" edge="1">
          <mxGeometry relative="1" as="geometry" />
        </mxCell>
        <UserObject label="fix_distortion" tooltip="自車の回転によって生じたLiDAR点群の歪みを補正する。（リンクこれで合ってるっけ？）" link="https://github.com/autowarefoundation/autoware.universe/blob/main/sensing/pointcloud_preprocessor/docs/distortion-corrector.md" id="T4uXMFoD5u3B1nQVuzlc-20">
          <mxCell style="rounded=1;whiteSpace=wrap;html=1;comic=0;fillColor=#e1d5e7;strokeColor=#9673a6;sketch=0;" parent="1" vertex="1">
            <mxGeometry x="-2060" y="-410" width="120" height="30" as="geometry" />
          </mxCell>
        </UserObject>
        <mxCell id="T4uXMFoD5u3B1nQVuzlc-21" value="&lt;span style=&quot;color: rgb(0 , 0 , 0) ; font-family: &amp;#34;helvetica&amp;#34; ; font-size: 11px ; font-style: normal ; font-weight: 400 ; letter-spacing: normal ; text-align: center ; text-indent: 0px ; text-transform: none ; word-spacing: 0px ; background-color: rgb(255 , 255 , 255) ; display: inline ; float: none&quot;&gt;*/pointcloud_raw&lt;/span&gt;" style="edgeStyle=elbowEdgeStyle;rounded=0;comic=0;jumpStyle=arc;orthogonalLoop=1;jettySize=auto;elbow=vertical;html=1;exitX=0.5;exitY=1;exitDx=0;exitDy=0;entryX=0.5;entryY=0;entryDx=0;entryDy=0;startArrow=none;startFill=0;endArrow=classic;endFill=1;" parent="1" source="T4uXMFoD5u3B1nQVuzlc-22" target="T4uXMFoD5u3B1nQVuzlc-24" edge="1">
          <mxGeometry relative="1" as="geometry">
            <mxPoint x="-2000" y="-560" as="targetPoint" />
          </mxGeometry>
        </mxCell>
        <UserObject label="packets_to_&lt;br&gt;pointcloud" tooltip="velodyneのpacketをpointcloud型に変更する" id="T4uXMFoD5u3B1nQVuzlc-22">
          <mxCell style="rounded=1;whiteSpace=wrap;html=1;comic=0;fillColor=#e1d5e7;strokeColor=#9673a6;sketch=0;" parent="1" vertex="1">
            <mxGeometry x="-2060" y="-620" width="120" height="30" as="geometry" />
          </mxCell>
        </UserObject>
        <mxCell id="T4uXMFoD5u3B1nQVuzlc-23" value="&lt;span style=&quot;color: rgb(0 , 0 , 0) ; font-family: &amp;#34;helvetica&amp;#34; ; font-size: 11px ; font-style: normal ; font-weight: 400 ; letter-spacing: normal ; text-align: center ; text-indent: 0px ; text-transform: none ; word-spacing: 0px ; background-color: rgb(255 , 255 , 255) ; display: inline ; float: none&quot;&gt;*/self_cropped/pointcloud&lt;/span&gt;" style="edgeStyle=elbowEdgeStyle;rounded=0;comic=0;jumpStyle=arc;orthogonalLoop=1;jettySize=auto;elbow=vertical;html=1;exitX=0.5;exitY=1;exitDx=0;exitDy=0;entryX=0.5;entryY=0;entryDx=0;entryDy=0;startArrow=none;startFill=0;endArrow=classic;endFill=1;" parent="1" source="T4uXMFoD5u3B1nQVuzlc-24" target="T4uXMFoD5u3B1nQVuzlc-26" edge="1">
          <mxGeometry relative="1" as="geometry" />
        </mxCell>
        <UserObject label="crop_box_&lt;br&gt;filter_self" tooltip="自車の領域内にある点群を除去する。" link="https://github.com/autowarefoundation/autoware.universe/blob/main/sensing/pointcloud_preprocessor/docs/crop-box-filter.md" id="T4uXMFoD5u3B1nQVuzlc-24">
          <mxCell style="rounded=1;whiteSpace=wrap;html=1;comic=0;fillColor=#e1d5e7;strokeColor=#9673a6;sketch=0;" parent="1" vertex="1">
            <mxGeometry x="-2060" y="-550" width="120" height="30" as="geometry" />
          </mxCell>
        </UserObject>
        <mxCell id="T4uXMFoD5u3B1nQVuzlc-25" value="&lt;span style=&quot;color: rgb(0 , 0 , 0) ; font-family: &amp;#34;helvetica&amp;#34; ; font-size: 11px ; font-style: normal ; font-weight: 400 ; letter-spacing: normal ; text-align: center ; text-indent: 0px ; text-transform: none ; word-spacing: 0px ; background-color: rgb(255 , 255 , 255) ; display: inline ; float: none&quot;&gt;*/mirror_cropped/pointcloud&lt;/span&gt;" style="edgeStyle=elbowEdgeStyle;rounded=0;comic=0;jumpStyle=arc;orthogonalLoop=1;jettySize=auto;elbow=vertical;html=1;exitX=0.5;exitY=1;exitDx=0;exitDy=0;entryX=0.5;entryY=0;entryDx=0;entryDy=0;startArrow=none;startFill=0;endArrow=classic;endFill=1;" parent="1" source="T4uXMFoD5u3B1nQVuzlc-26" target="T4uXMFoD5u3B1nQVuzlc-20" edge="1">
          <mxGeometry relative="1" as="geometry" />
        </mxCell>
        <UserObject label="crop_box_&lt;br&gt;filter_mirror" tooltip="自車のサイドミラーの部分に当たった点群を除去する" link="https://github.com/autowarefoundation/autoware.universe/blob/main/sensing/pointcloud_preprocessor/docs/crop-box-filter.md" id="T4uXMFoD5u3B1nQVuzlc-26">
          <mxCell style="rounded=1;whiteSpace=wrap;html=1;comic=0;fillColor=#e1d5e7;strokeColor=#9673a6;sketch=0;" parent="1" vertex="1">
            <mxGeometry x="-2060" y="-480" width="120" height="30" as="geometry" />
          </mxCell>
        </UserObject>
        <UserObject label="ring_outlier_filter" tooltip="点群のノイズ処理を行う&#xa;（同一リングから得られたLiDARの点をクラスタリングし、点群数の少ないクラスタに属する点群はノイズとして除去される）" link="https://github.com/autowarefoundation/autoware.universe/blob/main/sensing/pointcloud_preprocessor/docs/ring-outlier-filter.md" id="T4uXMFoD5u3B1nQVuzlc-27">
          <mxCell style="rounded=1;whiteSpace=wrap;html=1;comic=0;fillColor=#e1d5e7;strokeColor=#9673a6;sketch=0;" parent="1" vertex="1">
            <mxGeometry x="-2060" y="-340" width="120" height="30" as="geometry" />
          </mxCell>
        </UserObject>
        <mxCell id="dgDgLwtVGSBD31zoPSUn-15" style="edgeStyle=orthogonalEdgeStyle;rounded=0;orthogonalLoop=1;jettySize=auto;html=1;exitX=0.5;exitY=1;exitDx=0;exitDy=0;fontSize=14;fontColor=#000000;" edge="1" parent="1" source="T4uXMFoD5u3B1nQVuzlc-29" target="T4uXMFoD5u3B1nQVuzlc-93">
          <mxGeometry relative="1" as="geometry">
            <mxPoint x="-790" y="-870" as="targetPoint" />
            <Array as="points">
              <mxPoint x="-1930" y="-170" />
              <mxPoint x="-1460" y="-170" />
              <mxPoint x="-1460" y="-760" />
              <mxPoint x="-910" y="-760" />
            </Array>
          </mxGeometry>
        </mxCell>
        <mxCell id="dgDgLwtVGSBD31zoPSUn-16" value="/concatenated/pointcloud" style="edgeLabel;html=1;align=center;verticalAlign=middle;resizable=0;points=[];fontSize=14;fontColor=#000000;" vertex="1" connectable="0" parent="dgDgLwtVGSBD31zoPSUn-15">
          <mxGeometry x="0.246" y="1" relative="1" as="geometry">
            <mxPoint x="240" y="-78" as="offset" />
          </mxGeometry>
        </mxCell>
        <UserObject label="concat_filter" tooltip="複数のLiDAR点群をまとめて1つにする" link="https://github.com/autowarefoundation/autoware.universe/blob/main/sensing/pointcloud_preprocessor/docs/concatenate-data.md" id="T4uXMFoD5u3B1nQVuzlc-29">
          <mxCell style="rounded=1;whiteSpace=wrap;html=1;comic=0;fillColor=#e1d5e7;strokeColor=#9673a6;sketch=0;" parent="1" vertex="1">
            <mxGeometry x="-1990" y="-270" width="120" height="40" as="geometry" />
          </mxCell>
        </UserObject>
        <mxCell id="T4uXMFoD5u3B1nQVuzlc-30" style="edgeStyle=elbowEdgeStyle;rounded=0;comic=0;jumpStyle=arc;orthogonalLoop=1;jettySize=auto;elbow=vertical;html=1;entryX=0.5;entryY=0;entryDx=0;entryDy=0;startArrow=none;startFill=0;endArrow=classic;endFill=1;" parent="1" source="T4uXMFoD5u3B1nQVuzlc-27" target="T4uXMFoD5u3B1nQVuzlc-29" edge="1">
          <mxGeometry relative="1" as="geometry">
            <mxPoint x="-2000" y="-310" as="sourcePoint" />
          </mxGeometry>
        </mxCell>
        <mxCell id="T4uXMFoD5u3B1nQVuzlc-31" style="edgeStyle=elbowEdgeStyle;rounded=0;comic=0;jumpStyle=arc;orthogonalLoop=1;jettySize=auto;elbow=vertical;html=1;exitX=0.5;exitY=1;exitDx=0;exitDy=0;startArrow=none;startFill=0;endArrow=classic;endFill=1;" parent="1" edge="1">
          <mxGeometry relative="1" as="geometry">
            <mxPoint x="-1930" y="-270" as="targetPoint" />
            <mxPoint x="-1850" y="-310" as="sourcePoint" />
          </mxGeometry>
        </mxCell>
        <object label="gnss_poser" tooltip="MGRS座標系への変換" link="https://github.com/tier4/autoware.iv/tree/master/sensing/preprocessor/gnss/gnss_poser" id="T4uXMFoD5u3B1nQVuzlc-32">
          <mxCell style="rounded=1;whiteSpace=wrap;html=1;comic=0;fillColor=#e1d5e7;strokeColor=#9673a6;sketch=0;" parent="1" vertex="1">
            <mxGeometry x="-2280" y="-640" width="120" height="40" as="geometry" />
          </mxCell>
        </object>
        <mxCell id="T4uXMFoD5u3B1nQVuzlc-33" style="edgeStyle=elbowEdgeStyle;rounded=0;comic=0;jumpStyle=arc;orthogonalLoop=1;jettySize=auto;elbow=vertical;html=1;entryX=0.5;entryY=0;entryDx=0;entryDy=0;startArrow=none;startFill=0;endArrow=classic;endFill=1;" parent="1" source="T4uXMFoD5u3B1nQVuzlc-34" target="T4uXMFoD5u3B1nQVuzlc-32" edge="1">
          <mxGeometry relative="1" as="geometry" />
        </mxCell>
        <object label="gnss_driver" desc="MGRS座標系への変換" tooltip="gnssのdriverです" id="T4uXMFoD5u3B1nQVuzlc-34">
          <mxCell style="rounded=1;whiteSpace=wrap;html=1;comic=0;strokeColor=#9673a6;fillColor=#e1d5e7;sketch=0;" parent="1" vertex="1">
            <mxGeometry x="-2280" y="-730" width="120" height="40" as="geometry" />
          </mxCell>
        </object>
        <mxCell id="dgDgLwtVGSBD31zoPSUn-20" style="edgeStyle=orthogonalEdgeStyle;rounded=0;orthogonalLoop=1;jettySize=auto;html=1;exitX=0.5;exitY=1;exitDx=0;exitDy=0;entryX=0.5;entryY=0;entryDx=0;entryDy=0;fontSize=12;fontColor=#000000;" edge="1" parent="1" source="T4uXMFoD5u3B1nQVuzlc-35" target="T4uXMFoD5u3B1nQVuzlc-39">
          <mxGeometry relative="1" as="geometry" />
        </mxCell>
        <UserObject label="imu_driver" tooltip="imuのdriverです" id="T4uXMFoD5u3B1nQVuzlc-35">
          <mxCell style="rounded=1;whiteSpace=wrap;html=1;comic=0;strokeColor=#9673a6;fillColor=#e1d5e7;sketch=0;" parent="1" vertex="1">
            <mxGeometry x="-1680" y="-730" width="120" height="40" as="geometry" />
          </mxCell>
        </UserObject>
        <mxCell id="T4uXMFoD5u3B1nQVuzlc-37" value="/sensing/lidar/pointcloud" style="edgeStyle=elbowEdgeStyle;rounded=0;comic=0;jumpStyle=arc;orthogonalLoop=1;jettySize=auto;elbow=vertical;html=1;exitX=0.5;exitY=1;exitDx=0;exitDy=0;startArrow=none;startFill=0;endArrow=classic;endFill=1;entryX=0.5;entryY=0;entryDx=0;entryDy=0;" parent="1" source="T4uXMFoD5u3B1nQVuzlc-16" target="T4uXMFoD5u3B1nQVuzlc-54" edge="1">
          <mxGeometry x="0.5789" relative="1" as="geometry">
            <mxPoint x="-1520" y="-160" as="targetPoint" />
            <mxPoint x="-1370" y="-380" as="sourcePoint" />
            <Array as="points">
              <mxPoint x="-1890" y="-160" />
            </Array>
            <mxPoint as="offset" />
          </mxGeometry>
        </mxCell>
        <mxCell id="T4uXMFoD5u3B1nQVuzlc-38" value="/sensing/gnss/&lt;br&gt;pose_with_covariance" style="edgeStyle=elbowEdgeStyle;rounded=0;comic=0;jumpStyle=arc;orthogonalLoop=1;jettySize=auto;elbow=vertical;html=1;exitX=0.5;exitY=1;exitDx=0;exitDy=0;startArrow=none;startFill=0;endArrow=classic;endFill=1;entryX=0.5;entryY=0;entryDx=0;entryDy=0;" parent="1" source="T4uXMFoD5u3B1nQVuzlc-32" target="T4uXMFoD5u3B1nQVuzlc-50" edge="1">
          <mxGeometry relative="1" as="geometry">
            <mxPoint x="-2010" y="-40" as="targetPoint" />
            <Array as="points">
              <mxPoint x="-2250" y="100" />
            </Array>
          </mxGeometry>
        </mxCell>
        <UserObject label="imu_corrector" tooltip="ヨーレートのバイアス除去とかをするノード" link="https://github.com/tier4/autoware.iv/tree/main/sensing/preprocessor/imu/imu_corrector" id="T4uXMFoD5u3B1nQVuzlc-39">
          <mxCell style="rounded=1;whiteSpace=wrap;html=1;comic=0;strokeColor=#9673a6;fillColor=#e1d5e7;sketch=0;" parent="1" vertex="1">
            <mxGeometry x="-1680" y="-600" width="120" height="40" as="geometry" />
          </mxCell>
        </UserObject>
        <mxCell id="T4uXMFoD5u3B1nQVuzlc-40" value="/sensing/imu/imu_data" style="edgeStyle=elbowEdgeStyle;rounded=0;comic=0;jumpStyle=arc;orthogonalLoop=1;jettySize=auto;elbow=vertical;html=1;startArrow=none;startFill=0;endArrow=classic;endFill=1;entryX=0.5;entryY=0;entryDx=0;entryDy=0;exitX=0.5;exitY=1;exitDx=0;exitDy=0;" parent="1" source="T4uXMFoD5u3B1nQVuzlc-39" target="T4uXMFoD5u3B1nQVuzlc-52" edge="1">
          <mxGeometry relative="1" as="geometry">
            <mxPoint x="-1697" y="-10" as="targetPoint" />
            <mxPoint x="-1707" y="20" as="sourcePoint" />
          </mxGeometry>
        </mxCell>
        <mxCell id="T4uXMFoD5u3B1nQVuzlc-41" value="voxel_grid_downsample/pointcloud" style="edgeStyle=orthogonalEdgeStyle;rounded=0;comic=0;jumpStyle=arc;orthogonalLoop=1;jettySize=auto;html=1;exitX=0.5;exitY=1;exitDx=0;exitDy=0;entryX=0.5;entryY=0;entryDx=0;entryDy=0;startArrow=none;startFill=0;" parent="1" source="T4uXMFoD5u3B1nQVuzlc-42" target="T4uXMFoD5u3B1nQVuzlc-48" edge="1">
          <mxGeometry relative="1" as="geometry" />
        </mxCell>
        <UserObject label="voxel_grid_&lt;br&gt;downsample_filter" tooltip="立体格子の点群密度が一様になるように点群を間引く。点群密度が正規化されるため、NDTのロバスト化に一役買っている。" id="T4uXMFoD5u3B1nQVuzlc-42">
          <mxCell style="rounded=1;whiteSpace=wrap;html=1;comic=0;fillColor=#dae8fc;strokeColor=#6c8ebf;sketch=0;" parent="1" vertex="1">
            <mxGeometry x="-2040" y="308" width="120" height="40" as="geometry" />
          </mxCell>
        </UserObject>
        <mxCell id="T4uXMFoD5u3B1nQVuzlc-43" value="pose_twist_fusion_filter/&lt;br&gt;pose_with_covariance_&lt;br&gt;no_yawbias" style="edgeStyle=orthogonalEdgeStyle;rounded=0;comic=0;jumpStyle=arc;orthogonalLoop=1;jettySize=auto;html=1;exitX=0.656;exitY=0.014;exitDx=0;exitDy=0;entryX=1;entryY=0.5;entryDx=0;entryDy=0;startArrow=none;startFill=0;endArrow=classic;endFill=1;exitPerimeter=0;" parent="1" source="T4uXMFoD5u3B1nQVuzlc-44" target="T4uXMFoD5u3B1nQVuzlc-46" edge="1">
          <mxGeometry x="-0.5865" y="13" relative="1" as="geometry">
            <mxPoint as="offset" />
          </mxGeometry>
        </mxCell>
        <UserObject label="ekf_localizer" tooltip="Estimate ego vehicle&#39;s position, orientation, and velocity by EKF algorithm." link="https://github.com/tier4/autoware.iv/tree/master/localization/pose_twist_fusion_filter/ekf_localizer" id="T4uXMFoD5u3B1nQVuzlc-44">
          <mxCell style="rounded=1;whiteSpace=wrap;html=1;comic=0;fillColor=#dae8fc;strokeColor=#6c8ebf;sketch=0;" parent="1" vertex="1">
            <mxGeometry x="-2040" y="579" width="310" height="40" as="geometry" />
          </mxCell>
        </UserObject>
        <mxCell id="T4uXMFoD5u3B1nQVuzlc-45" value="pose_estimator/&lt;br&gt;pose_with_covariance" style="edgeStyle=elbowEdgeStyle;rounded=0;comic=0;jumpStyle=arc;orthogonalLoop=1;jettySize=auto;html=1;exitX=0.5;exitY=1;exitDx=0;exitDy=0;startArrow=none;startFill=0;endArrow=classic;endFill=1;entryX=0.192;entryY=-0.017;entryDx=0;entryDy=0;entryPerimeter=0;elbow=vertical;" parent="1" source="T4uXMFoD5u3B1nQVuzlc-46" target="T4uXMFoD5u3B1nQVuzlc-44" edge="1">
          <mxGeometry x="-0.3197" relative="1" as="geometry">
            <mxPoint x="-1650.8600000000001" y="559" as="targetPoint" />
            <mxPoint as="offset" />
          </mxGeometry>
        </mxCell>
        <UserObject label="ndt_scan_matcher" tooltip="LiDARの点群とpointcloud_mapとのマッチングを行い、自己位置を計算する" link="https://github.com/tier4/autoware.iv/tree/master/localization/pose_estimator/ndt_scan_matcher" id="T4uXMFoD5u3B1nQVuzlc-46">
          <mxCell style="rounded=1;whiteSpace=wrap;html=1;comic=0;fillColor=#dae8fc;strokeColor=#6c8ebf;sketch=0;" parent="1" vertex="1">
            <mxGeometry x="-2040" y="480" width="120" height="40" as="geometry" />
          </mxCell>
        </UserObject>
        <mxCell id="T4uXMFoD5u3B1nQVuzlc-47" value="downsample/pointcloud" style="edgeStyle=orthogonalEdgeStyle;rounded=0;comic=0;jumpStyle=arc;orthogonalLoop=1;jettySize=auto;html=1;startArrow=none;startFill=0;" parent="1" source="T4uXMFoD5u3B1nQVuzlc-48" target="T4uXMFoD5u3B1nQVuzlc-46" edge="1">
          <mxGeometry relative="1" as="geometry" />
        </mxCell>
        <UserObject label="random_&lt;br&gt;downsample_filter" tooltip="点群数が一定以下になるようにランダムに間引く。基本的にはvoxel grid filterで丁度いいくらい点群数になるように調整してあり、点群数のlimiter的な立ち位置が強い&#xa;" id="T4uXMFoD5u3B1nQVuzlc-48">
          <mxCell style="rounded=1;whiteSpace=wrap;html=1;comic=0;fillColor=#dae8fc;strokeColor=#6c8ebf;sketch=0;" parent="1" vertex="1">
            <mxGeometry x="-2040" y="390" width="120" height="40" as="geometry" />
          </mxCell>
        </UserObject>
        <mxCell id="T4uXMFoD5u3B1nQVuzlc-49" value="/initialpose3d" style="edgeStyle=orthogonalEdgeStyle;rounded=0;comic=0;jumpStyle=arc;orthogonalLoop=1;jettySize=auto;html=1;entryX=0;entryY=0.75;entryDx=0;entryDy=0;startArrow=none;startFill=0;endArrow=classic;endFill=1;" parent="1" source="T4uXMFoD5u3B1nQVuzlc-50" target="T4uXMFoD5u3B1nQVuzlc-46" edge="1">
          <mxGeometry relative="1" as="geometry">
            <Array as="points">
              <mxPoint x="-2170" y="330" />
              <mxPoint x="-2170" y="510" />
            </Array>
            <mxPoint x="-2040" y="599" as="targetPoint" />
          </mxGeometry>
        </mxCell>
        <UserObject label="pose_initializer" tooltip="GNSS / Userからラフな初期位置を受け取り、NDT+モンテカルロ法で正確な自己位置を推定して出力する。NDTとはserviceでやり取りする。" link="https://github.com/tier4/autoware.iv/tree/master/localization/util/pose_initializer" id="T4uXMFoD5u3B1nQVuzlc-50">
          <mxCell style="rounded=1;whiteSpace=wrap;html=1;comic=0;fillColor=#dae8fc;strokeColor=#6c8ebf;sketch=0;" parent="1" vertex="1">
            <mxGeometry x="-2280" y="302.5" width="120" height="40" as="geometry" />
          </mxCell>
        </UserObject>
        <mxCell id="T4uXMFoD5u3B1nQVuzlc-51" value="twist_estimator/twist_with_covariance" style="edgeStyle=orthogonalEdgeStyle;rounded=0;comic=0;jumpStyle=arc;orthogonalLoop=1;jettySize=auto;html=1;startArrow=none;startFill=0;endArrow=classic;endFill=1;exitX=0.5;exitY=1;exitDx=0;exitDy=0;entryX=0.853;entryY=-0.036;entryDx=0;entryDy=0;entryPerimeter=0;" parent="1" source="T4uXMFoD5u3B1nQVuzlc-52" edge="1">
          <mxGeometry x="0.3811" y="1" relative="1" as="geometry">
            <mxPoint x="-1775.5700000000002" y="577.5599999999995" as="targetPoint" />
            <Array as="points">
              <mxPoint x="-1777" y="280" />
              <mxPoint x="-1776" y="280" />
              <mxPoint x="-1776" y="500" />
            </Array>
            <mxPoint as="offset" />
          </mxGeometry>
        </mxCell>
        <UserObject label="gyro_odometer" tooltip="車両速度とimuを統合する。いまは確か、ただ単にvx=vehicle, wz=imuだった気がする。" link="https://github.com/tier4/autoware.iv/tree/master/localization/twist_estimator/gyro_odometer" id="T4uXMFoD5u3B1nQVuzlc-52">
          <mxCell style="rounded=1;whiteSpace=wrap;html=1;comic=0;fillColor=#dae8fc;strokeColor=#6c8ebf;sketch=0;" parent="1" vertex="1">
            <mxGeometry x="-1837" y="290" width="120" height="40" as="geometry" />
          </mxCell>
        </UserObject>
        <mxCell id="T4uXMFoD5u3B1nQVuzlc-53" value="measurement_range/pointcloud" style="edgeStyle=orthogonalEdgeStyle;rounded=0;comic=0;jumpStyle=arc;orthogonalLoop=1;jettySize=auto;html=1;startArrow=none;startFill=0;" parent="1" source="T4uXMFoD5u3B1nQVuzlc-54" target="T4uXMFoD5u3B1nQVuzlc-42" edge="1">
          <mxGeometry relative="1" as="geometry" />
        </mxCell>
        <UserObject label="crop_box_filter_&lt;br&gt;measurement_range" tooltip="一定範囲内のLiDAR点群のみを切り取って出力する。ホントは遠くまで見たいけど、歪みの影響が大きくなったり、そもそも遠方の点群地図がなかったりするので、近くだけを見てる。" id="T4uXMFoD5u3B1nQVuzlc-54">
          <mxCell style="rounded=1;whiteSpace=wrap;html=1;comic=0;fillColor=#dae8fc;strokeColor=#6c8ebf;sketch=0;" parent="1" vertex="1">
            <mxGeometry x="-2040" y="220" width="120" height="40" as="geometry" />
          </mxCell>
        </UserObject>
        <UserObject label="vehicle_velocity_converter" tooltip="車両速度とimuを統合する。いまは確か、ただ単にvx=vehicle, wz=imuだった気がする。" id="T4uXMFoD5u3B1nQVuzlc-55">
          <mxCell style="rounded=1;whiteSpace=wrap;html=1;comic=0;fillColor=#dae8fc;strokeColor=#6c8ebf;sketch=0;" parent="1" vertex="1">
            <mxGeometry x="-1670" y="208" width="160" height="40" as="geometry" />
          </mxCell>
        </UserObject>
        <mxCell id="T4uXMFoD5u3B1nQVuzlc-56" value="/tf&lt;br&gt;(map to base_link)" style="edgeStyle=orthogonalEdgeStyle;rounded=0;comic=0;jumpStyle=arc;orthogonalLoop=1;jettySize=auto;html=1;startArrow=none;startFill=0;endArrow=classic;endFill=1;" parent="1" edge="1">
          <mxGeometry x="-0.4667" y="4" relative="1" as="geometry">
            <mxPoint x="-1984" y="790" as="targetPoint" />
            <mxPoint x="-1984" y="620" as="sourcePoint" />
            <Array as="points">
              <mxPoint x="-1984" y="660" />
              <mxPoint x="-1984" y="660" />
            </Array>
            <mxPoint as="offset" />
          </mxGeometry>
        </mxCell>
        <mxCell id="T4uXMFoD5u3B1nQVuzlc-57" value="/localization/kinematic_state&lt;br&gt;[nav_msgs/msg/Odometry]" style="edgeStyle=orthogonalEdgeStyle;rounded=0;orthogonalLoop=1;jettySize=auto;html=1;exitX=0.5;exitY=1;exitDx=0;exitDy=0;comic=0;" parent="1" source="T4uXMFoD5u3B1nQVuzlc-58" edge="1">
          <mxGeometry relative="1" as="geometry">
            <mxPoint x="-1880" y="800" as="targetPoint" />
            <Array as="points">
              <mxPoint x="-1880" y="790" />
            </Array>
          </mxGeometry>
        </mxCell>
        <UserObject label="stop_filter" tooltip="Overwrite vx=0 and wz=0 when the vehicle wheel speed is zero to indicate the stop condition." id="T4uXMFoD5u3B1nQVuzlc-58">
          <mxCell style="rounded=1;whiteSpace=wrap;html=1;comic=0;fillColor=#dae8fc;strokeColor=#6c8ebf;sketch=0;" parent="1" vertex="1">
            <mxGeometry x="-1940" y="680" width="120" height="40" as="geometry" />
          </mxCell>
        </UserObject>
        <UserObject label="localization_error_monitor" tooltip="" id="T4uXMFoD5u3B1nQVuzlc-59">
          <mxCell style="rounded=1;whiteSpace=wrap;html=1;comic=0;fillColor=#dae8fc;strokeColor=#6c8ebf;sketch=0;" parent="1" vertex="1">
            <mxGeometry x="-1720" y="670" width="160" height="40" as="geometry" />
          </mxCell>
        </UserObject>
        <mxCell id="T4uXMFoD5u3B1nQVuzlc-60" value="pose_twist_fusion_filter/&lt;br&gt;pose_with_covariance" style="edgeStyle=orthogonalEdgeStyle;rounded=0;comic=0;jumpStyle=arc;orthogonalLoop=1;jettySize=auto;html=1;exitX=1;exitY=0.5;exitDx=0;exitDy=0;startArrow=none;startFill=0;endArrow=classic;endFill=1;entryX=0.5;entryY=0;entryDx=0;entryDy=0;" parent="1" source="T4uXMFoD5u3B1nQVuzlc-44" target="T4uXMFoD5u3B1nQVuzlc-59" edge="1">
          <mxGeometry x="0.2846" relative="1" as="geometry">
            <mxPoint x="-2041" y="682" as="targetPoint" />
            <mxPoint x="-2060" y="599" as="sourcePoint" />
            <Array as="points">
              <mxPoint x="-1640" y="599" />
            </Array>
            <mxPoint as="offset" />
          </mxGeometry>
        </mxCell>
        <mxCell id="T4uXMFoD5u3B1nQVuzlc-61" value="/diagnostics" style="edgeStyle=orthogonalEdgeStyle;rounded=0;orthogonalLoop=1;jettySize=auto;html=1;exitX=0.5;exitY=1;exitDx=0;exitDy=0;comic=0;" parent="1" source="T4uXMFoD5u3B1nQVuzlc-59" edge="1">
          <mxGeometry relative="1" as="geometry">
            <mxPoint x="-1640" y="790" as="targetPoint" />
            <mxPoint x="-2188" y="730" as="sourcePoint" />
            <mxPoint as="offset" />
            <Array as="points">
              <mxPoint x="-1640" y="790" />
            </Array>
          </mxGeometry>
        </mxCell>
        <mxCell id="T4uXMFoD5u3B1nQVuzlc-62" value="pose_twist_fusion_filter/&lt;br&gt;kinematic_state" style="edgeStyle=orthogonalEdgeStyle;rounded=0;comic=0;jumpStyle=arc;orthogonalLoop=1;jettySize=auto;html=1;startArrow=none;startFill=0;endArrow=classic;endFill=1;entryX=0.5;entryY=0;entryDx=0;entryDy=0;exitX=0.5;exitY=1;exitDx=0;exitDy=0;" parent="1" source="T4uXMFoD5u3B1nQVuzlc-44" target="T4uXMFoD5u3B1nQVuzlc-58" edge="1">
          <mxGeometry relative="1" as="geometry">
            <mxPoint x="-1864.9700000000005" y="681" as="targetPoint" />
            <mxPoint x="-1869.9700000000005" y="620" as="sourcePoint" />
          </mxGeometry>
        </mxCell>
        <mxCell id="T4uXMFoD5u3B1nQVuzlc-63" value="&lt;div&gt;/perception/object_recognition/&lt;br&gt;&lt;/div&gt;" style="rounded=1;whiteSpace=wrap;html=1;fillColor=#d5e8d4;strokeColor=#82b366;verticalAlign=top;align=center;labelBackgroundColor=none;" parent="1" vertex="1">
          <mxGeometry x="-1267" y="-65" width="550" height="932.5" as="geometry" />
        </mxCell>
        <mxCell id="T4uXMFoD5u3B1nQVuzlc-64" value="&lt;div&gt;/perception/object_recognition/detection/euclidean/&lt;br&gt;&lt;/div&gt;" style="rounded=1;whiteSpace=wrap;html=1;fillColor=#d5e8d4;strokeColor=#82b366;verticalAlign=top;align=center;labelBackgroundColor=none;" parent="1" vertex="1">
          <mxGeometry x="-1066" y="-26.5" width="320" height="550" as="geometry" />
        </mxCell>
        <mxCell id="T4uXMFoD5u3B1nQVuzlc-65" value="&lt;div&gt;&lt;span&gt;/perception/&lt;/span&gt;&lt;span&gt;object_recognition/&lt;/span&gt;&lt;span&gt;detection/&lt;/span&gt;&lt;/div&gt;&lt;div&gt;&lt;span&gt;euclidean/clustering/&lt;/span&gt;&lt;br&gt;&lt;/div&gt;" style="rounded=1;whiteSpace=wrap;html=1;fillColor=#d5e8d4;strokeColor=#82b366;verticalAlign=top;align=center;labelBackgroundColor=none;" parent="1" vertex="1">
          <mxGeometry x="-1031" y="13.5" width="250" height="310" as="geometry" />
        </mxCell>
        <mxCell id="T4uXMFoD5u3B1nQVuzlc-66" value="euclidean/clustering/downsampled/pointcloud" style="edgeStyle=orthogonalEdgeStyle;rounded=0;jumpStyle=arc;orthogonalLoop=1;jettySize=auto;html=1;labelBackgroundColor=none;" parent="1" source="T4uXMFoD5u3B1nQVuzlc-67" target="T4uXMFoD5u3B1nQVuzlc-69" edge="1">
          <mxGeometry relative="1" as="geometry" />
        </mxCell>
        <mxCell id="T4uXMFoD5u3B1nQVuzlc-67" value="voxel_grid_filter" style="rounded=1;whiteSpace=wrap;html=1;fillColor=#d5e8d4;strokeColor=#82b366;" parent="1" vertex="1">
          <mxGeometry x="-971" y="73.5" width="120" height="40" as="geometry" />
        </mxCell>
        <mxCell id="T4uXMFoD5u3B1nQVuzlc-68" value="euclidean/clustering/outlier_filter/pointcloud" style="edgeStyle=orthogonalEdgeStyle;rounded=0;jumpStyle=arc;orthogonalLoop=1;jettySize=auto;html=1;entryX=0.5;entryY=0;entryDx=0;entryDy=0;labelBackgroundColor=none;" parent="1" source="T4uXMFoD5u3B1nQVuzlc-69" target="T4uXMFoD5u3B1nQVuzlc-71" edge="1">
          <mxGeometry relative="1" as="geometry" />
        </mxCell>
        <mxCell id="T4uXMFoD5u3B1nQVuzlc-69" value="outlier_filter" style="rounded=1;whiteSpace=wrap;html=1;fillColor=#d5e8d4;strokeColor=#82b366;" parent="1" vertex="1">
          <mxGeometry x="-971" y="173.5" width="120" height="40" as="geometry" />
        </mxCell>
        <mxCell id="T4uXMFoD5u3B1nQVuzlc-70" value="/lidar/cluster" style="edgeStyle=orthogonalEdgeStyle;rounded=0;jumpStyle=arc;orthogonalLoop=1;jettySize=auto;html=1;entryX=0.5;entryY=0;entryDx=0;entryDy=0;labelBackgroundColor=none;" parent="1" source="T4uXMFoD5u3B1nQVuzlc-71" target="T4uXMFoD5u3B1nQVuzlc-91" edge="1">
          <mxGeometry x="-0.4286" relative="1" as="geometry">
            <mxPoint x="-1061" y="526" as="targetPoint" />
            <Array as="points">
              <mxPoint x="-911" y="336" />
            </Array>
            <mxPoint as="offset" />
          </mxGeometry>
        </mxCell>
        <UserObject label="euclidean_cluster" link="https://github.com/autowarefoundation/autoware.universe/tree/main/perception/euclidean_cluster" id="T4uXMFoD5u3B1nQVuzlc-71">
          <mxCell style="rounded=1;whiteSpace=wrap;html=1;fillColor=#d5e8d4;strokeColor=#82b366;" parent="1" vertex="1">
            <mxGeometry x="-971" y="263.5" width="120" height="40" as="geometry" />
          </mxCell>
        </UserObject>
        <mxCell id="T4uXMFoD5u3B1nQVuzlc-73" value="/rois*" style="edgeStyle=orthogonalEdgeStyle;rounded=0;jumpStyle=arc;orthogonalLoop=1;jettySize=auto;html=1;entryX=0;entryY=0.5;entryDx=0;entryDy=0;labelBackgroundColor=none;" parent="1" source="T4uXMFoD5u3B1nQVuzlc-83" target="T4uXMFoD5u3B1nQVuzlc-85" edge="1">
          <mxGeometry x="-0.697" relative="1" as="geometry">
            <Array as="points">
              <mxPoint x="-1146" y="423.5" />
            </Array>
            <mxPoint as="offset" />
          </mxGeometry>
        </mxCell>
        <mxCell id="T4uXMFoD5u3B1nQVuzlc-74" value="detection_by_tracker/objects" style="edgeStyle=orthogonalEdgeStyle;rounded=0;jumpStyle=arc;orthogonalLoop=1;jettySize=auto;html=1;entryX=0;entryY=0.5;entryDx=0;entryDy=0;labelBackgroundColor=none;" parent="1" source="T4uXMFoD5u3B1nQVuzlc-75" target="T4uXMFoD5u3B1nQVuzlc-86" edge="1">
          <mxGeometry x="-0.4172" relative="1" as="geometry">
            <Array as="points">
              <mxPoint x="-1144" y="616" />
            </Array>
            <mxPoint as="offset" />
          </mxGeometry>
        </mxCell>
        <UserObject label="detection_by_&lt;br&gt;tracker_node" link="https://github.com/autowarefoundation/autoware.universe/tree/main/perception/detection_by_tracker" id="T4uXMFoD5u3B1nQVuzlc-75">
          <mxCell style="rounded=1;whiteSpace=wrap;html=1;fillColor=#d5e8d4;strokeColor=#82b366;" parent="1" vertex="1">
            <mxGeometry x="-1204" y="680" width="120" height="40" as="geometry" />
          </mxCell>
        </UserObject>
        <mxCell id="T4uXMFoD5u3B1nQVuzlc-76" style="edgeStyle=orthogonalEdgeStyle;rounded=0;jumpStyle=arc;orthogonalLoop=1;jettySize=auto;html=1;exitX=0.5;exitY=1;exitDx=0;exitDy=0;entryX=0.5;entryY=1;entryDx=0;entryDy=0;" parent="1" source="T4uXMFoD5u3B1nQVuzlc-82" target="T4uXMFoD5u3B1nQVuzlc-75" edge="1">
          <mxGeometry relative="1" as="geometry">
            <Array as="points">
              <mxPoint x="-1002" y="766" />
              <mxPoint x="-1144" y="766" />
            </Array>
          </mxGeometry>
        </mxCell>
        <mxCell id="T4uXMFoD5u3B1nQVuzlc-77" value="centerpoint/objects" style="edgeStyle=orthogonalEdgeStyle;rounded=0;orthogonalLoop=1;jettySize=auto;html=1;exitX=0.5;exitY=1;exitDx=0;exitDy=0;entryX=0.5;entryY=0;entryDx=0;entryDy=0;comic=0;labelBackgroundColor=none;" parent="1" source="T4uXMFoD5u3B1nQVuzlc-78" target="T4uXMFoD5u3B1nQVuzlc-86" edge="1">
          <mxGeometry x="-0.759" relative="1" as="geometry">
            <Array as="points">
              <mxPoint x="-1151" y="565.5" />
              <mxPoint x="-1002" y="565.5" />
            </Array>
            <mxPoint as="offset" />
          </mxGeometry>
        </mxCell>
        <UserObject label="lidar_centerpoint" tooltip="DNNをベースでLiDAR点群に物体のクラス情報を付与する" link="https://github.com/autowarefoundation/autoware.universe/tree/main/perception/lidar_centerpoint" id="T4uXMFoD5u3B1nQVuzlc-78">
          <mxCell style="rounded=1;whiteSpace=wrap;html=1;comic=0;fillColor=#d5e8d4;strokeColor=#82b366;sketch=0;" parent="1" vertex="1">
            <mxGeometry x="-1221" y="476" width="140" height="40" as="geometry" />
          </mxCell>
        </UserObject>
        <UserObject label="map_based_&lt;br&gt;prediction" tooltip="高精度地図情報を用いて、trackingされた動物体情報の移動経路予測を行う" link="https://github.com/autowarefoundation/autoware.universe/tree/main/perception/map_based_prediction" id="T4uXMFoD5u3B1nQVuzlc-79">
          <mxCell style="rounded=1;whiteSpace=wrap;html=1;comic=0;fillColor=#d5e8d4;strokeColor=#82b366;sketch=0;" parent="1" vertex="1">
            <mxGeometry x="-1062" y="796" width="120" height="40" as="geometry" />
          </mxCell>
        </UserObject>
        <mxCell id="T4uXMFoD5u3B1nQVuzlc-80" value="detection/objects" style="edgeStyle=orthogonalEdgeStyle;rounded=0;comic=0;orthogonalLoop=1;jettySize=auto;html=1;exitX=0.5;exitY=1;exitDx=0;exitDy=0;entryX=0.5;entryY=0;entryDx=0;entryDy=0;startArrow=none;startFill=0;labelBackgroundColor=none;" parent="1" source="T4uXMFoD5u3B1nQVuzlc-86" target="T4uXMFoD5u3B1nQVuzlc-82" edge="1">
          <mxGeometry relative="1" as="geometry">
            <mxPoint x="-1004" y="641" as="sourcePoint" />
          </mxGeometry>
        </mxCell>
        <mxCell id="T4uXMFoD5u3B1nQVuzlc-81" value="tracking/objects" style="edgeStyle=orthogonalEdgeStyle;rounded=0;comic=0;orthogonalLoop=1;jettySize=auto;html=1;exitX=0.5;exitY=1;exitDx=0;exitDy=0;entryX=0.5;entryY=0;entryDx=0;entryDy=0;startArrow=none;startFill=0;labelBackgroundColor=none;" parent="1" source="T4uXMFoD5u3B1nQVuzlc-82" target="T4uXMFoD5u3B1nQVuzlc-79" edge="1">
          <mxGeometry x="-0.5789" relative="1" as="geometry">
            <mxPoint as="offset" />
          </mxGeometry>
        </mxCell>
        <UserObject label="multi_object_&lt;br&gt;tracker" tooltip="クラス＋位置＋形状情報に対してtrackingを行う。（最近上流が速度情報も出せるようになってきたらしい）" link="https://github.com/autowarefoundation/autoware.universe/tree/main/perception/multi_object_tracker" id="T4uXMFoD5u3B1nQVuzlc-82">
          <mxCell style="rounded=1;whiteSpace=wrap;html=1;comic=0;fillColor=#d5e8d4;strokeColor=#82b366;sketch=0;" parent="1" vertex="1">
            <mxGeometry x="-1062" y="680" width="120" height="40" as="geometry" />
          </mxCell>
        </UserObject>
        <UserObject label="tensorrt_yolo" tooltip="DNNをベースでLiDAR点群に物体のクラス情報を付与する" link="https://github.com/autowarefoundation/autoware.universe/tree/main/perception/tensorrt_yolo" id="T4uXMFoD5u3B1nQVuzlc-83">
          <mxCell style="rounded=1;whiteSpace=wrap;html=1;comic=0;fillColor=#d5e8d4;strokeColor=#82b366;sketch=0;" parent="1" vertex="1">
            <mxGeometry x="-1191" y="283.5" width="90" height="40" as="geometry" />
          </mxCell>
        </UserObject>
        <mxCell id="T4uXMFoD5u3B1nQVuzlc-84" value="" style="edgeStyle=orthogonalEdgeStyle;rounded=0;orthogonalLoop=1;jettySize=auto;html=1;comic=0;" parent="1" source="T4uXMFoD5u3B1nQVuzlc-85" target="T4uXMFoD5u3B1nQVuzlc-89" edge="1">
          <mxGeometry relative="1" as="geometry" />
        </mxCell>
        <UserObject label="roi_cluster_fusion" tooltip="DNNをベースでLiDAR点群に物体のクラス情報を付与する" link="https://github.com/autowarefoundation/autoware.universe/blob/main/perception/image_projection_based_fusion/docs/roi-cluster-fusion.md" id="T4uXMFoD5u3B1nQVuzlc-85">
          <mxCell style="rounded=1;whiteSpace=wrap;html=1;comic=0;fillColor=#d5e8d4;strokeColor=#82b366;sketch=0;" parent="1" vertex="1">
            <mxGeometry x="-981" y="403.5" width="140" height="40" as="geometry" />
          </mxCell>
        </UserObject>
        <UserObject label="object_association&lt;br&gt;_merger" tooltip="DNNをベースでLiDAR点群に物体のクラス情報を付与する" link="https://github.com/autowarefoundation/autoware.universe/tree/main/perception/object_merger" id="T4uXMFoD5u3B1nQVuzlc-86">
          <mxCell style="rounded=1;whiteSpace=wrap;html=1;comic=0;fillColor=#d5e8d4;strokeColor=#82b366;sketch=0;" parent="1" vertex="1">
            <mxGeometry x="-1057" y="596" width="110" height="40" as="geometry" />
          </mxCell>
        </UserObject>
        <mxCell id="T4uXMFoD5u3B1nQVuzlc-87" style="edgeStyle=orthogonalEdgeStyle;rounded=0;orthogonalLoop=1;jettySize=auto;html=1;exitX=0.5;exitY=1;exitDx=0;exitDy=0;comic=0;entryX=0.5;entryY=0;entryDx=0;entryDy=0;" parent="1" source="T4uXMFoD5u3B1nQVuzlc-89" target="T4uXMFoD5u3B1nQVuzlc-86" edge="1">
          <mxGeometry relative="1" as="geometry">
            <mxPoint x="-1031" y="616" as="targetPoint" />
            <mxPoint x="-913" y="486" as="sourcePoint" />
            <Array as="points">
              <mxPoint x="-913" y="493.5" />
              <mxPoint x="-913" y="565.5" />
              <mxPoint x="-1002" y="565.5" />
            </Array>
          </mxGeometry>
        </mxCell>
        <mxCell id="T4uXMFoD5u3B1nQVuzlc-88" value="camera_lidar_fusion/objects" style="edgeLabel;html=1;align=center;verticalAlign=middle;resizable=0;points=[];comic=0;labelBackgroundColor=none;" parent="T4uXMFoD5u3B1nQVuzlc-87" vertex="1" connectable="0">
          <mxGeometry x="-0.5273" y="2" relative="1" as="geometry">
            <mxPoint y="21" as="offset" />
          </mxGeometry>
        </mxCell>
        <UserObject label="object_range_splitter" tooltip="DNNをベースでLiDAR点群に物体のクラス情報を付与する" link="https://github.com/autowarefoundation/autoware.universe/tree/main/perception/object_range_splitter" id="T4uXMFoD5u3B1nQVuzlc-89">
          <mxCell style="rounded=1;whiteSpace=wrap;html=1;comic=0;fillColor=#d5e8d4;strokeColor=#82b366;sketch=0;" parent="1" vertex="1">
            <mxGeometry x="-981" y="473.5" width="140" height="40" as="geometry" />
          </mxCell>
        </UserObject>
        <mxCell id="T4uXMFoD5u3B1nQVuzlc-90" style="edgeStyle=orthogonalEdgeStyle;rounded=0;orthogonalLoop=1;jettySize=auto;html=1;exitX=0.5;exitY=1;exitDx=0;exitDy=0;entryX=0.5;entryY=0;entryDx=0;entryDy=0;comic=0;" parent="1" source="T4uXMFoD5u3B1nQVuzlc-91" target="T4uXMFoD5u3B1nQVuzlc-85" edge="1">
          <mxGeometry relative="1" as="geometry" />
        </mxCell>
        <UserObject label="shape_estimation" tooltip="DNNをベースでLiDAR点群に物体のクラス情報を付与する" link="https://github.com/autowarefoundation/autoware.universe/tree/main/perception/shape_estimation" id="T4uXMFoD5u3B1nQVuzlc-91">
          <mxCell style="rounded=1;whiteSpace=wrap;html=1;comic=0;fillColor=#d5e8d4;strokeColor=#82b366;sketch=0;" parent="1" vertex="1">
            <mxGeometry x="-981" y="343.5" width="140" height="40" as="geometry" />
          </mxCell>
        </UserObject>
        <mxCell id="T4uXMFoD5u3B1nQVuzlc-92" value="&lt;div&gt;/perception/occupancy_grid_map/&lt;br&gt;&lt;/div&gt;" style="rounded=1;whiteSpace=wrap;html=1;fillColor=#d5e8d4;strokeColor=#82b366;verticalAlign=top;align=center;labelBackgroundColor=none;" parent="1" vertex="1">
          <mxGeometry x="-1241" y="-573" width="200" height="260" as="geometry" />
        </mxCell>
        <mxCell id="T4uXMFoD5u3B1nQVuzlc-93" value="&lt;div&gt;/perception/obstacle_segmentation/&lt;br&gt;&lt;/div&gt;" style="rounded=1;whiteSpace=wrap;html=1;fillColor=#d5e8d4;strokeColor=#82b366;verticalAlign=top;align=center;labelBackgroundColor=none;" parent="1" vertex="1">
          <mxGeometry x="-1017" y="-733" width="230" height="430" as="geometry" />
        </mxCell>
        <mxCell id="T4uXMFoD5u3B1nQVuzlc-94" style="edgeStyle=orthogonalEdgeStyle;rounded=0;orthogonalLoop=1;jettySize=auto;html=1;exitX=0.5;exitY=1;exitDx=0;exitDy=0;entryX=1;entryY=0.5;entryDx=0;entryDy=0;" parent="1" source="T4uXMFoD5u3B1nQVuzlc-98" target="T4uXMFoD5u3B1nQVuzlc-100" edge="1">
          <mxGeometry relative="1" as="geometry" />
        </mxCell>
        <mxCell id="T4uXMFoD5u3B1nQVuzlc-95" style="edgeStyle=orthogonalEdgeStyle;rounded=0;orthogonalLoop=1;jettySize=auto;html=1;entryX=1;entryY=0.5;entryDx=0;entryDy=0;exitX=0.5;exitY=1;exitDx=0;exitDy=0;" parent="1" source="T4uXMFoD5u3B1nQVuzlc-98" target="T4uXMFoD5u3B1nQVuzlc-104" edge="1">
          <mxGeometry relative="1" as="geometry" />
        </mxCell>
        <mxCell id="T4uXMFoD5u3B1nQVuzlc-96" value="no_ground/oneshot/pointcloud" style="edgeStyle=elbowEdgeStyle;rounded=0;comic=0;jumpStyle=arc;orthogonalLoop=1;jettySize=auto;elbow=vertical;html=1;exitX=0.5;exitY=1;exitDx=0;exitDy=0;startArrow=none;startFill=0;endArrow=classic;endFill=1;entryX=0.5;entryY=0;entryDx=0;entryDy=0;labelBackgroundColor=none;" parent="1" source="T4uXMFoD5u3B1nQVuzlc-98" target="T4uXMFoD5u3B1nQVuzlc-105" edge="1">
          <mxGeometry x="-0.7906" relative="1" as="geometry">
            <mxPoint x="-911.0689655172414" y="-523" as="targetPoint" />
            <mxPoint as="offset" />
            <Array as="points">
              <mxPoint x="-947" y="-443" />
            </Array>
          </mxGeometry>
        </mxCell>
        <mxCell id="T4uXMFoD5u3B1nQVuzlc-97" value="range_cropped/pointcloud" style="edgeStyle=elbowEdgeStyle;rounded=0;comic=0;jumpStyle=arc;orthogonalLoop=1;jettySize=auto;elbow=vertical;html=1;startArrow=none;startFill=0;endArrow=classic;endFill=1;labelBackgroundColor=none;" parent="1" target="T4uXMFoD5u3B1nQVuzlc-98" edge="1">
          <mxGeometry x="-0.2727" relative="1" as="geometry">
            <Array as="points">
              <mxPoint x="-911" y="-643" />
            </Array>
            <mxPoint as="offset" />
            <mxPoint x="-911" y="-653" as="sourcePoint" />
          </mxGeometry>
        </mxCell>
        <UserObject label="common_&lt;br&gt;ground_filter" link="https://github.com/tier4/autoware.iv/blob/develop/sensing/preprocessor/pointcloud/pointcloud_preprocessor/docs/ScanGroundFilter.md" tooltip="アルゴリズムを使って点群から地面を除去します。" id="T4uXMFoD5u3B1nQVuzlc-98">
          <mxCell style="rounded=1;whiteSpace=wrap;html=1;comic=0;fillColor=#d5e8d4;strokeColor=#82b366;sketch=0;" parent="1" vertex="1">
            <mxGeometry x="-971" y="-598" width="120" height="40" as="geometry" />
          </mxCell>
        </UserObject>
        <mxCell id="T4uXMFoD5u3B1nQVuzlc-99" value="" style="edgeStyle=orthogonalEdgeStyle;rounded=0;orthogonalLoop=1;jettySize=auto;html=1;" parent="1" source="T4uXMFoD5u3B1nQVuzlc-100" target="T4uXMFoD5u3B1nQVuzlc-104" edge="1">
          <mxGeometry relative="1" as="geometry" />
        </mxCell>
        <UserObject label="pointcloud_to_&lt;br&gt;laserscan" link="https://github.com/tier4/pointcloud_to_laserscan" tooltip="点群データを使ってoccupancy gridを生成します" id="T4uXMFoD5u3B1nQVuzlc-100">
          <mxCell style="rounded=1;whiteSpace=wrap;html=1;comic=0;fillColor=#d5e8d4;strokeColor=#82b366;sketch=0;" parent="1" vertex="1">
            <mxGeometry x="-1201" y="-523.03" width="120" height="40" as="geometry" />
          </mxCell>
        </UserObject>
        <mxCell id="T4uXMFoD5u3B1nQVuzlc-101" value="" style="edgeStyle=orthogonalEdgeStyle;rounded=0;orthogonalLoop=1;jettySize=auto;html=1;comic=0;exitX=0.5;exitY=1;exitDx=0;exitDy=0;entryX=0;entryY=0.5;entryDx=0;entryDy=0;" parent="1" source="T4uXMFoD5u3B1nQVuzlc-104" target="T4uXMFoD5u3B1nQVuzlc-105" edge="1">
          <mxGeometry relative="1" as="geometry">
            <Array as="points">
              <mxPoint x="-1141" y="-373" />
            </Array>
          </mxGeometry>
        </mxCell>
        <mxCell id="T4uXMFoD5u3B1nQVuzlc-102" value="occupancy_grid" style="edgeLabel;html=1;align=center;verticalAlign=middle;resizable=0;points=[];labelBackgroundColor=none;" parent="T4uXMFoD5u3B1nQVuzlc-101" vertex="1" connectable="0">
          <mxGeometry x="0.1676" y="-1" relative="1" as="geometry">
            <mxPoint x="-73" y="-21" as="offset" />
          </mxGeometry>
        </mxCell>
        <mxCell id="T4uXMFoD5u3B1nQVuzlc-103" value="/perception/occupancy_grid_map/map" style="edgeStyle=orthogonalEdgeStyle;rounded=0;jumpStyle=arc;orthogonalLoop=1;jettySize=auto;html=1;exitX=0.5;exitY=1;exitDx=0;exitDy=0;labelBackgroundColor=none;" parent="1" source="T4uXMFoD5u3B1nQVuzlc-104" edge="1">
          <mxGeometry x="0.5797" relative="1" as="geometry">
            <mxPoint x="-1140.75" y="-233" as="targetPoint" />
            <mxPoint as="offset" />
          </mxGeometry>
        </mxCell>
        <UserObject label="laserscan_to_&lt;br&gt;occupancy_grid_map" link="https://github.com/tier4/autoware.iv/tree/develop/sensing/preprocessor/pointcloud/laserscan_to_occupancy_grid_map" tooltip="全点群データ、地面除去済み点群、occupancy gridの情報を総合的に見て、障害物が存在するかどうかの確率をoccupancy gridマップの形式で計算します。" id="T4uXMFoD5u3B1nQVuzlc-104">
          <mxCell style="rounded=1;whiteSpace=wrap;html=1;comic=0;fillColor=#d5e8d4;strokeColor=#82b366;sketch=0;" parent="1" vertex="1">
            <mxGeometry x="-1201" y="-463.03" width="120" height="40" as="geometry" />
          </mxCell>
        </UserObject>
        <UserObject label="occupancy_grid_&lt;br&gt;map_based_outlier_filter" link="https://github.com/autowarefoundation/autoware.universe/tree/main/perception/occupancy_grid_map_outlier_filter" tooltip="occupancy gridで与えられる障害物存在確率マップの情報をもとに、障害物点群をフィルタリングします。" id="T4uXMFoD5u3B1nQVuzlc-105">
          <mxCell style="rounded=1;whiteSpace=wrap;html=1;comic=0;fillColor=#d5e8d4;strokeColor=#82b366;sketch=0;" parent="1" vertex="1">
            <mxGeometry x="-981" y="-393" width="140" height="40" as="geometry" />
          </mxCell>
        </UserObject>
        <mxCell id="T4uXMFoD5u3B1nQVuzlc-106" value="/perception/obstacle_segmentation/pointcloud" style="edgeStyle=elbowEdgeStyle;rounded=0;comic=0;jumpStyle=arc;orthogonalLoop=1;jettySize=auto;elbow=vertical;html=1;exitX=0.5;exitY=1;exitDx=0;exitDy=0;startArrow=none;startFill=0;endArrow=classic;endFill=1;labelBackgroundColor=none;" parent="1" source="T4uXMFoD5u3B1nQVuzlc-105" edge="1" target="T4uXMFoD5u3B1nQVuzlc-67">
          <mxGeometry x="-0.3889" relative="1" as="geometry">
            <mxPoint x="-911" y="-233" as="targetPoint" />
            <mxPoint x="-901" y="-497" as="sourcePoint" />
            <mxPoint as="offset" />
          </mxGeometry>
        </mxCell>
        <mxCell id="T4uXMFoD5u3B1nQVuzlc-107" value="crop_box_filter" style="rounded=1;whiteSpace=wrap;html=1;fillColor=#d5e8d4;strokeColor=#82b366;" parent="1" vertex="1">
          <mxGeometry x="-971" y="-693" width="120" height="40" as="geometry" />
        </mxCell>
        <mxCell id="T4uXMFoD5u3B1nQVuzlc-109" value="&amp;lt;Parking&amp;gt;" style="text;html=1;strokeColor=none;fillColor=none;align=center;verticalAlign=middle;whiteSpace=wrap;rounded=0;dashed=1;comic=0;" parent="1" vertex="1">
          <mxGeometry x="-130" y="-640" width="80" height="20" as="geometry" />
        </mxCell>
        <mxCell id="T4uXMFoD5u3B1nQVuzlc-110" value="HMI" style="rounded=1;whiteSpace=wrap;html=1;fillColor=#bac8d3;strokeColor=#23445d;" parent="1" vertex="1">
          <mxGeometry x="-240" y="-900" width="120" height="40" as="geometry" />
        </mxCell>
        <UserObject label="costmap_generator" tooltip="障害物点群や地図の走行可能エリアの情報から、駐車プランナー用のコストマップを生成する。" link="https://github.com/tier4/autoware.iv/tree/master/planning/scenario_planning/parking/costmap_generator" id="T4uXMFoD5u3B1nQVuzlc-111">
          <mxCell style="rounded=1;whiteSpace=wrap;html=1;comic=0;fillColor=#fff2cc;strokeColor=#d6b656;sketch=0;shadow=0;" parent="1" vertex="1">
            <mxGeometry x="-160" y="-490" width="120" height="40" as="geometry" />
          </mxCell>
        </UserObject>
        <mxCell id="T4uXMFoD5u3B1nQVuzlc-119" value="/planning/mission_planning/route&lt;br&gt;[autoware_auto_planning_msgs/HADMapRoute]" style="edgeStyle=orthogonalEdgeStyle;rounded=0;comic=0;orthogonalLoop=1;jettySize=auto;html=1;exitX=0.5;exitY=1;exitDx=0;exitDy=0;entryX=0.5;entryY=0;entryDx=0;entryDy=0;startArrow=none;startFill=0;jumpStyle=none;" parent="1" source="T4uXMFoD5u3B1nQVuzlc-120" target="T4uXMFoD5u3B1nQVuzlc-121" edge="1">
          <mxGeometry x="-0.8417" relative="1" as="geometry">
            <Array as="points">
              <mxPoint x="-179" y="-590" />
            </Array>
            <mxPoint as="offset" />
          </mxGeometry>
        </mxCell>
        <UserObject label="mission_planner" tooltip="高精度地図情報をもとに、自己位置からゴールまでのルートを計算します。" link="https://github.com/tier4/autoware.iv/tree/master/planning/mission_planning/mission_planner" id="T4uXMFoD5u3B1nQVuzlc-120">
          <mxCell style="rounded=1;whiteSpace=wrap;html=1;comic=0;fillColor=#fff2cc;strokeColor=#d6b656;sketch=0;shadow=0;" parent="1" vertex="1">
            <mxGeometry x="-240" y="-780" width="120" height="40" as="geometry" />
          </mxCell>
        </UserObject>
        <UserObject label="freespace_planner" tooltip="コストマップとゴールから、自車の走行ルートを計算する。いまはHA*を使ってる。" link="https://github.com/tier4/autoware.iv/tree/master/planning/scenario_planning/parking/freespace_planner" id="T4uXMFoD5u3B1nQVuzlc-121">
          <mxCell style="rounded=1;whiteSpace=wrap;html=1;comic=0;fillColor=#fff2cc;strokeColor=#d6b656;sketch=0;shadow=0;" parent="1" vertex="1">
            <mxGeometry x="-240" y="-580" width="120" height="40" as="geometry" />
          </mxCell>
        </UserObject>
        <mxCell id="T4uXMFoD5u3B1nQVuzlc-122" value="" style="rounded=1;whiteSpace=wrap;html=1;dashed=1;fillColor=none;strokeWidth=1;comic=0;" parent="1" vertex="1">
          <mxGeometry x="-250" y="-660" width="230" height="250" as="geometry" />
        </mxCell>
        <mxCell id="T4uXMFoD5u3B1nQVuzlc-123" value="costmap_generator/occupancy_grid" style="edgeStyle=orthogonalEdgeStyle;rounded=0;comic=0;orthogonalLoop=1;jettySize=auto;html=1;startArrow=none;startFill=0;orthogonal=1;entryX=1;entryY=0.5;entryDx=0;entryDy=0;exitX=0.5;exitY=0;exitDx=0;exitDy=0;" parent="1" source="T4uXMFoD5u3B1nQVuzlc-111" target="T4uXMFoD5u3B1nQVuzlc-121" edge="1">
          <mxGeometry x="-0.3333" relative="1" as="geometry">
            <mxPoint x="-130" y="-485" as="sourcePoint" />
            <mxPoint as="offset" />
          </mxGeometry>
        </mxCell>
        <mxCell id="T4uXMFoD5u3B1nQVuzlc-124" value="goal" style="endArrow=classic;html=1;entryX=0.5;entryY=0;entryDx=0;entryDy=0;comic=0;exitX=0.5;exitY=1;exitDx=0;exitDy=0;" parent="1" source="T4uXMFoD5u3B1nQVuzlc-110" target="T4uXMFoD5u3B1nQVuzlc-120" edge="1">
          <mxGeometry width="50" height="50" relative="1" as="geometry">
            <mxPoint x="-180" y="-820" as="sourcePoint" />
            <mxPoint x="-136.5" y="-840" as="targetPoint" />
          </mxGeometry>
        </mxCell>
        <UserObject label="motion_velocity_&lt;br&gt;smoother" tooltip="経路に埋め込まれた最大速度を超過しないように、うまい具合で速度を平滑化する。カーブでの減速もここで行う。" link="https://github.com/tier4/autoware.iv/tree/master/planning/scenario_planning/common/motion_velocity_optimizer" id="T4uXMFoD5u3B1nQVuzlc-125">
          <mxCell style="rounded=1;whiteSpace=wrap;html=1;comic=0;fillColor=#fff2cc;strokeColor=#d6b656;sketch=0;shadow=0;" parent="1" vertex="1">
            <mxGeometry x="-240" y="-330" width="120" height="40" as="geometry" />
          </mxCell>
        </UserObject>
        <mxCell id="T4uXMFoD5u3B1nQVuzlc-126" value="&lt;span style=&quot;color: rgb(0, 0, 0); font-family: helvetica; font-size: 11px; font-style: normal; font-weight: 400; letter-spacing: normal; text-align: center; text-indent: 0px; text-transform: none; word-spacing: 0px; background-color: rgb(255, 255, 255); display: inline; float: none;&quot;&gt;parking/trajectory [Trajectory]&lt;/span&gt;" style="edgeStyle=orthogonalEdgeStyle;rounded=0;orthogonalLoop=1;jettySize=auto;html=1;exitX=0.5;exitY=1;exitDx=0;exitDy=0;entryX=0.5;entryY=0;entryDx=0;entryDy=0;" parent="1" source="T4uXMFoD5u3B1nQVuzlc-121" target="T4uXMFoD5u3B1nQVuzlc-125" edge="1">
          <mxGeometry x="0.6763" relative="1" as="geometry">
            <mxPoint x="-410" y="-380" as="targetPoint" />
            <Array as="points">
              <mxPoint x="-180" y="-390" />
              <mxPoint x="-180" y="-390" />
            </Array>
            <mxPoint as="offset" />
            <mxPoint x="20" y="-570" as="sourcePoint" />
          </mxGeometry>
        </mxCell>
        <mxCell id="T4uXMFoD5u3B1nQVuzlc-128" value="/diagnostics" style="edgeStyle=orthogonalEdgeStyle;rounded=0;orthogonalLoop=1;jettySize=auto;html=1;entryX=1;entryY=0.25;entryDx=0;entryDy=0;comic=0;" parent="1" source="T4uXMFoD5u3B1nQVuzlc-184" target="T4uXMFoD5u3B1nQVuzlc-192" edge="1">
          <mxGeometry x="-0.2889" relative="1" as="geometry">
            <mxPoint as="offset" />
          </mxGeometry>
        </mxCell>
        <mxCell id="T4uXMFoD5u3B1nQVuzlc-129" value="&lt;div style=&quot;text-align: left&quot;&gt;/autoware/engage&amp;nbsp;[Engage]&lt;/div&gt;&lt;div style=&quot;text-align: left&quot;&gt;/current_gate_mode [GateMode]&lt;/div&gt;" style="edgeStyle=orthogonalEdgeStyle;rounded=0;comic=0;sketch=0;jumpStyle=arc;orthogonalLoop=1;jettySize=auto;html=1;exitX=1;exitY=0.5;exitDx=0;exitDy=0;endArrow=none;endFill=0;startArrow=classic;startFill=1;entryX=0;entryY=0.5;entryDx=0;entryDy=0;" parent="1" source="T4uXMFoD5u3B1nQVuzlc-160" target="T4uXMFoD5u3B1nQVuzlc-131" edge="1">
          <mxGeometry x="0.2201" y="15" relative="1" as="geometry">
            <mxPoint x="690" y="475" as="targetPoint" />
            <mxPoint as="offset" />
            <Array as="points">
              <mxPoint x="580" y="475" />
              <mxPoint x="580" y="475" />
            </Array>
          </mxGeometry>
        </mxCell>
        <mxCell id="T4uXMFoD5u3B1nQVuzlc-131" value="HMI" style="rounded=1;whiteSpace=wrap;html=1;fillColor=#bac8d3;strokeColor=#23445d;" parent="1" vertex="1">
          <mxGeometry x="720" y="455" width="120" height="40" as="geometry" />
        </mxCell>
        <mxCell id="T4uXMFoD5u3B1nQVuzlc-132" style="edgeStyle=orthogonalEdgeStyle;rounded=0;orthogonalLoop=1;jettySize=auto;html=1;entryX=0.5;entryY=0;entryDx=0;entryDy=0;exitX=0;exitY=0.5;exitDx=0;exitDy=0;" parent="1" source="T4uXMFoD5u3B1nQVuzlc-134" target="T4uXMFoD5u3B1nQVuzlc-171" edge="1">
          <mxGeometry relative="1" as="geometry">
            <mxPoint x="690" y="-160" as="sourcePoint" />
          </mxGeometry>
        </mxCell>
        <mxCell id="T4uXMFoD5u3B1nQVuzlc-133" value="&lt;span style=&quot;text-align: left&quot;&gt;/api/external/set/command/remote/control: [tier4_external_api_msgs/msg/ControlCommandStamped]&lt;/span&gt;&lt;br style=&quot;text-align: left&quot;&gt;&lt;span style=&quot;text-align: left&quot;&gt;/api/external/set/command/remote/heartbeat: [tier4_external_api_msgs/msg/Heartbeat]&lt;/span&gt;&lt;br style=&quot;text-align: left&quot;&gt;&lt;span style=&quot;text-align: left&quot;&gt;/api/external/set/command/remote/shift: [tier4_external_api_msgs/msg/GearShiftStamped]&lt;/span&gt;&lt;br style=&quot;text-align: left&quot;&gt;&lt;span style=&quot;text-align: left&quot;&gt;/api/external/set/command/remote/turn_signal: [tier4_external_api_msgs/msg/TurnSignalStamped]&lt;/span&gt;" style="edgeLabel;html=1;align=center;verticalAlign=middle;resizable=0;points=[];fontSize=11;fontColor=default;rotation=90;" parent="T4uXMFoD5u3B1nQVuzlc-132" vertex="1" connectable="0">
          <mxGeometry x="-0.2571" y="-1" relative="1" as="geometry">
            <mxPoint x="76" y="41" as="offset" />
          </mxGeometry>
        </mxCell>
        <mxCell id="T4uXMFoD5u3B1nQVuzlc-134" value="HMI" style="rounded=1;whiteSpace=wrap;html=1;fillColor=#bac8d3;strokeColor=#23445d;" parent="1" vertex="1">
          <mxGeometry x="720" y="-190" width="120" height="40" as="geometry" />
        </mxCell>
        <mxCell id="T4uXMFoD5u3B1nQVuzlc-135" style="edgeStyle=orthogonalEdgeStyle;rounded=0;orthogonalLoop=1;jettySize=auto;html=1;exitX=0.5;exitY=1;exitDx=0;exitDy=0;entryX=0.5;entryY=0;entryDx=0;entryDy=0;labelBackgroundColor=none;fontColor=default;" parent="1" source="T4uXMFoD5u3B1nQVuzlc-154" target="T4uXMFoD5u3B1nQVuzlc-164" edge="1">
          <mxGeometry relative="1" as="geometry" />
        </mxCell>
        <mxCell id="T4uXMFoD5u3B1nQVuzlc-136" value="accel_map_calibrator" style="rounded=1;whiteSpace=wrap;html=1;fillColor=#b0e3e6;strokeColor=#0e8088;" parent="1" vertex="1">
          <mxGeometry x="-443" y="610" width="140" height="40" as="geometry" />
        </mxCell>
        <mxCell id="T4uXMFoD5u3B1nQVuzlc-137" style="edgeStyle=orthogonalEdgeStyle;rounded=0;orthogonalLoop=1;jettySize=auto;html=1;entryX=0.5;entryY=0;entryDx=0;entryDy=0;labelBackgroundColor=none;fontColor=default;exitX=0.361;exitY=0.997;exitDx=0;exitDy=0;exitPerimeter=0;" parent="1" source="T4uXMFoD5u3B1nQVuzlc-160" target="T4uXMFoD5u3B1nQVuzlc-136" edge="1">
          <mxGeometry relative="1" as="geometry">
            <mxPoint x="-210" y="540" as="sourcePoint" />
            <Array as="points">
              <mxPoint x="-204" y="580" />
              <mxPoint x="-373" y="580" />
            </Array>
          </mxGeometry>
        </mxCell>
        <mxCell id="T4uXMFoD5u3B1nQVuzlc-138" style="edgeStyle=orthogonalEdgeStyle;rounded=0;orthogonalLoop=1;jettySize=auto;html=1;entryX=1;entryY=0.5;entryDx=0;entryDy=0;labelBackgroundColor=none;fontColor=default;exitX=0.5;exitY=1;exitDx=0;exitDy=0;" parent="1" source="T4uXMFoD5u3B1nQVuzlc-175" target="T4uXMFoD5u3B1nQVuzlc-136" edge="1">
          <mxGeometry relative="1" as="geometry">
            <Array as="points">
              <mxPoint x="-205" y="710" />
              <mxPoint x="-285" y="710" />
              <mxPoint x="-285" y="630" />
            </Array>
          </mxGeometry>
        </mxCell>
        <mxCell id="T4uXMFoD5u3B1nQVuzlc-139" style="edgeStyle=orthogonalEdgeStyle;rounded=0;orthogonalLoop=1;jettySize=auto;html=1;entryX=0.912;entryY=0.039;entryDx=0;entryDy=0;entryPerimeter=0;labelBackgroundColor=default;fontColor=default;" parent="1" source="T4uXMFoD5u3B1nQVuzlc-171" target="T4uXMFoD5u3B1nQVuzlc-160" edge="1">
          <mxGeometry relative="1" as="geometry">
            <Array as="points">
              <mxPoint x="170" y="-53" />
            </Array>
          </mxGeometry>
        </mxCell>
        <mxCell id="T4uXMFoD5u3B1nQVuzlc-140" value="&lt;div style=&quot;text-align: left&quot;&gt;&lt;font style=&quot;font-size: 11px&quot;&gt;/api/external/set/command/remote/control&amp;nbsp;&lt;br&gt;&lt;/font&gt;&lt;/div&gt;&lt;div style=&quot;text-align: left&quot;&gt;&lt;font style=&quot;font-size: 11px&quot;&gt;&amp;nbsp; &amp;nbsp;[tier4_external_api_msgs/msg/ControlCommandStamped]&lt;/font&gt;&lt;/div&gt;&lt;div style=&quot;text-align: left&quot;&gt;&lt;font style=&quot;font-size: 11px&quot;&gt;/api/external/set/command/remote/shift&lt;/font&gt;&lt;/div&gt;&lt;div style=&quot;text-align: left&quot;&gt;&lt;font style=&quot;font-size: 11px&quot;&gt;&amp;nbsp; &amp;nbsp;[tier4_external_api_msgs/msg/GearShiftStamped]&lt;/font&gt;&lt;/div&gt;&lt;div style=&quot;text-align: left&quot;&gt;&lt;font style=&quot;font-size: 11px&quot;&gt;/api/external/set/command/remote/turn_signal&lt;/font&gt;&lt;/div&gt;&lt;div style=&quot;text-align: left&quot;&gt;&lt;font style=&quot;font-size: 11px&quot;&gt;&amp;nbsp; &amp;nbsp;[tier4_external_api_msgs/msg/TurnSignalStamped]&lt;/font&gt;&lt;/div&gt;" style="edgeLabel;html=1;align=center;verticalAlign=middle;resizable=0;points=[];fontColor=default;labelBackgroundColor=#FFFFFF;" parent="T4uXMFoD5u3B1nQVuzlc-139" vertex="1" connectable="0">
          <mxGeometry x="0.0689" y="3" relative="1" as="geometry">
            <mxPoint x="-19" y="149" as="offset" />
          </mxGeometry>
        </mxCell>
        <mxCell id="T4uXMFoD5u3B1nQVuzlc-141" style="edgeStyle=orthogonalEdgeStyle;rounded=0;orthogonalLoop=1;jettySize=auto;html=1;labelBackgroundColor=default;fontColor=default;entryX=0.946;entryY=-0.002;entryDx=0;entryDy=0;entryPerimeter=0;" parent="1" source="T4uXMFoD5u3B1nQVuzlc-165" target="T4uXMFoD5u3B1nQVuzlc-160" edge="1">
          <mxGeometry relative="1" as="geometry">
            <mxPoint x="290" y="440" as="targetPoint" />
            <Array as="points">
              <mxPoint x="330" y="400" />
              <mxPoint x="193" y="400" />
            </Array>
          </mxGeometry>
        </mxCell>
        <mxCell id="T4uXMFoD5u3B1nQVuzlc-142" value="&lt;div style=&quot;text-align: left&quot;&gt;/api/external/get/command/selected/control&lt;/div&gt;&amp;nbsp; &amp;nbsp; [tier4_external_api_msgs/msg/ControlCommandStamped]" style="edgeLabel;html=1;align=center;verticalAlign=middle;resizable=0;points=[];fontColor=default;" parent="T4uXMFoD5u3B1nQVuzlc-141" vertex="1" connectable="0">
          <mxGeometry x="0.0165" y="6" relative="1" as="geometry">
            <mxPoint x="118" y="-68" as="offset" />
          </mxGeometry>
        </mxCell>
        <mxCell id="T4uXMFoD5u3B1nQVuzlc-143" style="edgeStyle=orthogonalEdgeStyle;rounded=0;orthogonalLoop=1;jettySize=auto;html=1;exitX=0.5;exitY=0;exitDx=0;exitDy=0;entryX=0.5;entryY=1;entryDx=0;entryDy=0;labelBackgroundColor=default;fontSize=11;fontColor=default;" parent="1" source="T4uXMFoD5u3B1nQVuzlc-145" target="T4uXMFoD5u3B1nQVuzlc-181" edge="1">
          <mxGeometry relative="1" as="geometry" />
        </mxCell>
        <mxCell id="T4uXMFoD5u3B1nQVuzlc-145" value="HMI" style="rounded=1;whiteSpace=wrap;html=1;fillColor=#bac8d3;strokeColor=#23445d;" parent="1" vertex="1">
          <mxGeometry x="-210" y="1180" width="120" height="40" as="geometry" />
        </mxCell>
        <mxCell id="T4uXMFoD5u3B1nQVuzlc-151" value="&lt;div style=&quot;text-align: left&quot;&gt;&lt;span&gt;/control/current_gate_mode&lt;/span&gt;&lt;/div&gt;&lt;div style=&quot;text-align: left&quot;&gt;&lt;span&gt;/vehicle/status/control_mode&lt;/span&gt;&lt;/div&gt;&lt;div style=&quot;text-align: left&quot;&gt;&lt;span&gt;/autoware/state&lt;/span&gt;&lt;/div&gt;" style="endArrow=classic;html=1;rounded=0;labelBackgroundColor=none;jumpStyle=arc;" parent="1" edge="1">
          <mxGeometry x="-0.6522" width="50" height="50" relative="1" as="geometry">
            <mxPoint x="520" y="920" as="sourcePoint" />
            <mxPoint x="430" y="840" as="targetPoint" />
            <Array as="points">
              <mxPoint x="520" y="840" />
            </Array>
            <mxPoint as="offset" />
          </mxGeometry>
        </mxCell>
        <mxCell id="T4uXMFoD5u3B1nQVuzlc-152" value="/diagnostics_err" style="edgeStyle=orthogonalEdgeStyle;rounded=0;jumpStyle=arc;orthogonalLoop=1;jettySize=auto;html=1;labelBackgroundColor=none;" parent="1" source="T4uXMFoD5u3B1nQVuzlc-192" edge="1">
          <mxGeometry relative="1" as="geometry">
            <mxPoint x="370" y="920" as="targetPoint" />
          </mxGeometry>
        </mxCell>
        <UserObject label="latlon_muxer" link="https://github.com/tier4/autoware.iv/tree/master/control/latlon_muxer" tooltip="縦横を分けて計算された制御コマンドを統合して出力します" id="T4uXMFoD5u3B1nQVuzlc-154">
          <mxCell style="rounded=1;whiteSpace=wrap;html=1;comic=0;fillColor=#ffe6cc;strokeColor=#d79b00;sketch=0;glass=0;shadow=0;" parent="1" vertex="1">
            <mxGeometry x="-225" y="130" width="120" height="40" as="geometry" />
          </mxCell>
        </UserObject>
        <mxCell id="T4uXMFoD5u3B1nQVuzlc-155" value="&lt;div&gt;&amp;nbsp;/control/trajectory_follower/lateral/control_cmd&lt;/div&gt;&lt;div&gt;&amp;nbsp;[AckermannLateralControlCommand]&lt;/div&gt;&lt;div&gt;&lt;br&gt;&lt;/div&gt;" style="edgeStyle=orthogonalEdgeStyle;rounded=0;comic=0;orthogonalLoop=1;jettySize=auto;html=1;entryX=0.5;entryY=0;entryDx=0;entryDy=0;labelBackgroundColor=none;" parent="1" source="T4uXMFoD5u3B1nQVuzlc-158" target="T4uXMFoD5u3B1nQVuzlc-154" edge="1">
          <mxGeometry x="-0.5402" y="19" relative="1" as="geometry">
            <Array as="points">
              <mxPoint x="-300" y="80" />
              <mxPoint x="-165" y="80" />
              <mxPoint x="-165" y="113" />
            </Array>
            <mxPoint as="offset" />
          </mxGeometry>
        </mxCell>
        <mxCell id="T4uXMFoD5u3B1nQVuzlc-156" value="/control/trajectory_follower/longitudinal/control_cmd&lt;br&gt;[LongitudinalControlCommand]" style="edgeStyle=orthogonalEdgeStyle;rounded=0;comic=0;orthogonalLoop=1;jettySize=auto;html=1;entryX=0.5;entryY=0;entryDx=0;entryDy=0;labelBackgroundColor=none;startArrow=none;exitX=0.5;exitY=1;exitDx=0;exitDy=0;" parent="1" source="T4uXMFoD5u3B1nQVuzlc-159" target="T4uXMFoD5u3B1nQVuzlc-154" edge="1">
          <mxGeometry x="-0.5342" y="-22" relative="1" as="geometry">
            <mxPoint x="30" y="250" as="targetPoint" />
            <Array as="points">
              <mxPoint x="-20" y="80" />
              <mxPoint x="-165" y="80" />
              <mxPoint x="-165" y="113" />
            </Array>
            <mxPoint as="offset" />
            <mxPoint x="-41" y="140" as="sourcePoint" />
          </mxGeometry>
        </mxCell>
        <mxCell id="T4uXMFoD5u3B1nQVuzlc-157" value="&lt;div&gt;/control/trajectory_follower/control_cmd&lt;/div&gt;&lt;div&gt;&amp;nbsp;[AckermannControlCommand]&lt;/div&gt;&lt;div&gt;&lt;br&gt;&lt;/div&gt;" style="edgeStyle=orthogonalEdgeStyle;rounded=0;comic=0;orthogonalLoop=1;jettySize=auto;html=1;entryX=0.231;entryY=-0.007;entryDx=0;entryDy=0;entryPerimeter=0;exitX=0.5;exitY=1;exitDx=0;exitDy=0;fillColor=none;fontColor=default;labelBackgroundColor=none;" parent="1" source="T4uXMFoD5u3B1nQVuzlc-154" target="T4uXMFoD5u3B1nQVuzlc-160" edge="1">
          <mxGeometry x="-0.8248" relative="1" as="geometry">
            <mxPoint x="-119" y="310" as="sourcePoint" />
            <mxPoint x="-119" y="380" as="targetPoint" />
            <mxPoint as="offset" />
            <Array as="points">
              <mxPoint x="-165" y="270" />
              <mxPoint x="-293" y="270" />
            </Array>
          </mxGeometry>
        </mxCell>
        <UserObject label="lateral_controller" link="https://github.com/tier4/autoware.iv/tree/master/control/mpc_follower" tooltip="経路追従のための目標ステア角とステア角速度を計算します。目標速度と加速度は経路に埋め込まれた値をそのまま出力します。" id="T4uXMFoD5u3B1nQVuzlc-158">
          <mxCell style="rounded=1;whiteSpace=wrap;html=1;comic=0;fillColor=#ffe6cc;strokeColor=#d79b00;sketch=0;glass=0;shadow=0;" parent="1" vertex="1">
            <mxGeometry x="-360" y="-73.5" width="120" height="40" as="geometry" />
          </mxCell>
        </UserObject>
        <UserObject label="longitudinal_controller" link="https://github.com/tier4/autoware.iv/tree/master/control/velocity_controller" tooltip="経路の目標速度に沿うための目標加速度を計算します。遅延補正や停止時のブレーキ抜き操作も行います。" id="T4uXMFoD5u3B1nQVuzlc-159">
          <mxCell style="rounded=1;whiteSpace=wrap;html=1;comic=0;fillColor=#ffe6cc;strokeColor=#d79b00;sketch=0;glass=0;shadow=0;" parent="1" vertex="1">
            <mxGeometry x="-100" y="-73.5" width="160" height="40" as="geometry" />
          </mxCell>
        </UserObject>
        <UserObject label="vehicle_cmd_gate" link="https://github.com/tier4/autoware.iv/tree/master/control/vehicle_cmd_gate" tooltip="指示モードに応じて、複数のコマンドの中から後段に渡すコマンドを選択します。" id="T4uXMFoD5u3B1nQVuzlc-160">
          <mxCell style="rounded=1;whiteSpace=wrap;html=1;comic=0;fillColor=#ffe6cc;strokeColor=#d79b00;sketch=0;glass=0;shadow=0;" parent="1" vertex="1">
            <mxGeometry x="-450" y="445" width="680" height="60" as="geometry" />
          </mxCell>
        </UserObject>
        <mxCell id="T4uXMFoD5u3B1nQVuzlc-161" value="" style="edgeStyle=orthogonalEdgeStyle;rounded=0;comic=0;orthogonalLoop=1;jettySize=auto;html=1;entryX=0.5;entryY=0;entryDx=0;entryDy=0;exitX=0.256;exitY=1.011;exitDx=0;exitDy=0;exitPerimeter=0;" parent="1" target="T4uXMFoD5u3B1nQVuzlc-175" edge="1">
          <mxGeometry relative="1" as="geometry">
            <mxPoint x="-203.92000000000007" y="505.6599999999994" as="sourcePoint" />
            <mxPoint x="-38" y="780" as="targetPoint" />
            <Array as="points">
              <mxPoint x="-205" y="506" />
            </Array>
          </mxGeometry>
        </mxCell>
        <mxCell id="T4uXMFoD5u3B1nQVuzlc-162" value="control/command/control_cmd&lt;br&gt;&amp;nbsp;[AckermannControlCommand]" style="edgeLabel;html=1;align=center;verticalAlign=middle;resizable=0;points=[];comic=0;" parent="T4uXMFoD5u3B1nQVuzlc-161" vertex="1" connectable="0">
          <mxGeometry x="0.7105" relative="1" as="geometry">
            <mxPoint x="5" y="-45" as="offset" />
          </mxGeometry>
        </mxCell>
        <mxCell id="T4uXMFoD5u3B1nQVuzlc-163" value="/control/shift_decider/gear_cmd&lt;br&gt;[GearCommand]" style="edgeStyle=orthogonalEdgeStyle;rounded=0;comic=0;orthogonalLoop=1;jettySize=auto;html=1;exitX=0.5;exitY=1;exitDx=0;exitDy=0;entryX=0.419;entryY=-0.005;entryDx=0;entryDy=0;entryPerimeter=0;" parent="1" source="T4uXMFoD5u3B1nQVuzlc-164" target="T4uXMFoD5u3B1nQVuzlc-160" edge="1">
          <mxGeometry x="-0.1656" relative="1" as="geometry">
            <Array as="points">
              <mxPoint x="-165" y="400" />
              <mxPoint x="-165" y="400" />
            </Array>
            <mxPoint x="-110" y="450" as="targetPoint" />
            <mxPoint as="offset" />
          </mxGeometry>
        </mxCell>
        <UserObject label="shift_decider" link="https://github.com/tier4/autoware.iv/tree/master/control/shift_decider" tooltip="制御出力に応じてギア変更のコマンドを出力します" id="T4uXMFoD5u3B1nQVuzlc-164">
          <mxCell style="rounded=1;whiteSpace=wrap;html=1;comic=0;fillColor=#ffe6cc;strokeColor=#d79b00;sketch=0;glass=0;shadow=0;" parent="1" vertex="1">
            <mxGeometry x="-225" y="328" width="120" height="40" as="geometry" />
          </mxCell>
        </UserObject>
        <UserObject label="external_cmd_&lt;br&gt;converter" link="https://github.com/tier4/autoware.iv/tree/master/vehicle/remote_cmd_converter" tooltip="遠隔から来たコマンド（アクセル/ブレーキ）を目標速度/加速度の信号に変換します" id="T4uXMFoD5u3B1nQVuzlc-165">
          <mxCell style="rounded=1;whiteSpace=wrap;html=1;comic=0;fillColor=#ffe6cc;strokeColor=#d79b00;sketch=0;glass=0;shadow=0;" parent="1" vertex="1">
            <mxGeometry x="270" y="210" width="120" height="40" as="geometry" />
          </mxCell>
        </UserObject>
        <mxCell id="T4uXMFoD5u3B1nQVuzlc-170" value="/external/selected/external_control_cmd&lt;br&gt;&amp;nbsp;[tier4_external_api_msgs/msg/ControlCommandStamped]" style="edgeStyle=orthogonalEdgeStyle;rounded=0;comic=0;orthogonalLoop=1;jettySize=auto;html=1;entryX=0.5;entryY=0;entryDx=0;entryDy=0;exitX=0.5;exitY=1;exitDx=0;exitDy=0;" parent="1" source="T4uXMFoD5u3B1nQVuzlc-171" target="T4uXMFoD5u3B1nQVuzlc-165" edge="1">
          <mxGeometry relative="1" as="geometry">
            <mxPoint x="811" y="490" as="targetPoint" />
            <Array as="points">
              <mxPoint x="330" y="190" />
              <mxPoint x="330" y="190" />
            </Array>
          </mxGeometry>
        </mxCell>
        <UserObject label="external_cmd_&lt;br&gt;selector" link="https://github.com/tier4/autoware.iv/tree/master/control/external_cmd_selector" id="T4uXMFoD5u3B1nQVuzlc-171">
          <mxCell style="rounded=1;whiteSpace=wrap;html=1;comic=0;fillColor=#ffe6cc;strokeColor=#d79b00;sketch=0;glass=0;shadow=0;" parent="1" vertex="1">
            <mxGeometry x="270" y="-73.5" width="120" height="40" as="geometry" />
          </mxCell>
        </UserObject>
        <mxCell id="T4uXMFoD5u3B1nQVuzlc-172" value="/current_gate_mode&amp;nbsp;[GateMode]&lt;div&gt;/gear_cmd [GearCommand]&lt;/div&gt;&lt;div&gt;/turn_indicators_cmd&amp;nbsp; [TurnIndicatorCommand]&lt;/div&gt;&lt;div&gt;&lt;div&gt;/hazard_lights_cmd&amp;nbsp; [HazardLightsCommand]&lt;/div&gt;&lt;/div&gt;&lt;div&gt;/vehicle_emergency_cmd [VehicleEmergencyStamped]&lt;/div&gt;" style="rounded=0;comic=0;orthogonalLoop=1;jettySize=auto;html=1;entryX=0.716;entryY=-0.014;entryDx=0;entryDy=0;entryPerimeter=0;align=left;labelBackgroundColor=default;" parent="1" edge="1">
          <mxGeometry x="-0.3878" y="-55" relative="1" as="geometry">
            <mxPoint as="offset" />
            <mxPoint x="25.920000000000073" y="849.02" as="targetPoint" />
            <mxPoint x="27.83316400192416" y="505" as="sourcePoint" />
          </mxGeometry>
        </mxCell>
        <object label="&amp;nbsp; &amp;nbsp; vehicle_interface" tooltip="Autowareと車両のinterfaceです。データの変換が主なタスクです。" id="T4uXMFoD5u3B1nQVuzlc-173">
          <mxCell style="rounded=1;whiteSpace=wrap;html=1;fillColor=#b0e3e6;strokeColor=#0e8088;align=left;comic=0;sketch=0;" parent="1" vertex="1">
            <mxGeometry x="-440" y="850" width="680" height="70" as="geometry" />
          </mxCell>
        </object>
        <UserObject label="raw_vehicle_cmd_&lt;br&gt;converter" link="https://github.com/tier4/autoware.iv/tree/master/vehicle/raw_vehicle_cmd_converter" tooltip="速度・加速度の目標値を、車両特有の制御信号（アクセル/ブレーキ等）に変換します" id="T4uXMFoD5u3B1nQVuzlc-175">
          <mxCell style="rounded=1;whiteSpace=wrap;html=1;comic=0;fillColor=#b0e3e6;strokeColor=#0e8088;sketch=0;" parent="1" vertex="1">
            <mxGeometry x="-265" y="610" width="120" height="40" as="geometry" />
          </mxCell>
        </UserObject>
        <mxCell id="T4uXMFoD5u3B1nQVuzlc-176" value="/vehicle/command/actuation_cmd" style="edgeStyle=orthogonalEdgeStyle;rounded=0;comic=0;orthogonalLoop=1;jettySize=auto;html=1;exitX=0.5;exitY=1;exitDx=0;exitDy=0;" parent="1" source="T4uXMFoD5u3B1nQVuzlc-175" edge="1">
          <mxGeometry x="-0.6153" y="20" relative="1" as="geometry">
            <mxPoint x="-205" y="850" as="targetPoint" />
            <mxPoint as="offset" />
            <Array as="points">
              <mxPoint x="-205" y="750" />
              <mxPoint x="-205" y="750" />
            </Array>
          </mxGeometry>
        </mxCell>
        <UserObject label="pacmod_interface" link="https://github.com/tier4/autoware.iv/tree/master/vehicle/as" tooltip="pacmodとのinterfaced。LexusとかJapanTaxiとか。" id="T4uXMFoD5u3B1nQVuzlc-177">
          <mxCell style="rounded=1;whiteSpace=wrap;html=1;comic=0;fillColor=#b0e3e6;strokeColor=#0e8088;sketch=0;" parent="1" vertex="1">
            <mxGeometry x="-210" y="865" width="120" height="40" as="geometry" />
          </mxCell>
        </UserObject>
        <mxCell id="T4uXMFoD5u3B1nQVuzlc-178" value="/vehicle/status/velocity_status&lt;br&gt;/vehicle/status/steering_status&lt;br&gt;/vehicle/status/turn_indicators_status&lt;br&gt;/vehicle/status/gear_status&lt;br&gt;/vehicle/status/control_mode&lt;br&gt;/vehicle/status/&lt;span style=&quot;text-align: center&quot;&gt;actuation_status&lt;/span&gt;" style="endArrow=classic;html=1;exitX=0.121;exitY=0.011;exitDx=0;exitDy=0;exitPerimeter=0;comic=0;align=left;" parent="1" edge="1">
          <mxGeometry x="-0.0831" y="65" width="50" height="50" relative="1" as="geometry">
            <mxPoint x="-374.9800000000014" y="850.77" as="sourcePoint" />
            <mxPoint x="-376" y="710" as="targetPoint" />
            <mxPoint as="offset" />
          </mxGeometry>
        </mxCell>
        <mxCell id="T4uXMFoD5u3B1nQVuzlc-179" value="/pacmod/**" style="edgeStyle=orthogonalEdgeStyle;rounded=0;comic=0;orthogonalLoop=1;jettySize=auto;html=1;fillColor=#f5f5f5;strokeColor=#666666;exitX=0.5;exitY=1;exitDx=0;exitDy=0;startArrow=classic;startFill=1;entryX=0.5;entryY=0;entryDx=0;entryDy=0;" parent="1" source="T4uXMFoD5u3B1nQVuzlc-177" target="T4uXMFoD5u3B1nQVuzlc-182" edge="1">
          <mxGeometry x="0.1429" relative="1" as="geometry">
            <mxPoint x="-276" y="930" as="sourcePoint" />
            <mxPoint as="offset" />
            <mxPoint x="-276" y="990" as="targetPoint" />
          </mxGeometry>
        </mxCell>
        <UserObject label="Lexus450" tooltip="ASといろいろあったよ" id="T4uXMFoD5u3B1nQVuzlc-181">
          <mxCell style="rounded=1;whiteSpace=wrap;html=1;comic=0;fillColor=#f5f5f5;strokeColor=#666666;fontColor=#333333;sketch=0;" parent="1" vertex="1">
            <mxGeometry x="-210" y="1100" width="120" height="40" as="geometry" />
          </mxCell>
        </UserObject>
        <UserObject label="pacmod3" link="http://wiki.ros.org/pacmod3" id="T4uXMFoD5u3B1nQVuzlc-182">
          <mxCell style="rounded=1;whiteSpace=wrap;html=1;comic=0;fillColor=#f5f5f5;strokeColor=#666666;fontColor=#333333;sketch=0;" parent="1" vertex="1">
            <mxGeometry x="-210" y="1000" width="120" height="40" as="geometry" />
          </mxCell>
        </UserObject>
        <UserObject label="system_monitors" link="https://github.com/tier4/autoware.iv/tree/master/system/system_monitor" tooltip="各々データを監視し、異常があればdiagで通知します" id="T4uXMFoD5u3B1nQVuzlc-184">
          <mxCell style="rounded=1;whiteSpace=wrap;html=1;comic=0;fillColor=#f8cecc;strokeColor=#b85450;verticalAlign=top;sketch=0;" parent="1" vertex="1">
            <mxGeometry x="619" y="614" width="180" height="350" as="geometry" />
          </mxCell>
        </UserObject>
        <UserObject label="autoware_process_&lt;br&gt;monitor" id="T4uXMFoD5u3B1nQVuzlc-185">
          <mxCell style="rounded=1;whiteSpace=wrap;html=1;comic=0;fillColor=#f8cecc;strokeColor=#b85450;sketch=0;" parent="1" vertex="1">
            <mxGeometry x="649" y="644" width="120" height="40" as="geometry" />
          </mxCell>
        </UserObject>
        <mxCell id="T4uXMFoD5u3B1nQVuzlc-186" value="autoware_gpu_&lt;br&gt;monitor" style="rounded=1;whiteSpace=wrap;html=1;comic=0;fillColor=#f8cecc;strokeColor=#b85450;sketch=0;" parent="1" vertex="1">
          <mxGeometry x="649" y="694" width="120" height="40" as="geometry" />
        </mxCell>
        <mxCell id="T4uXMFoD5u3B1nQVuzlc-187" value="autoware_mem_&lt;br&gt;monitor" style="rounded=1;whiteSpace=wrap;html=1;comic=0;fillColor=#f8cecc;strokeColor=#b85450;sketch=0;" parent="1" vertex="1">
          <mxGeometry x="649" y="744" width="120" height="40" as="geometry" />
        </mxCell>
        <mxCell id="T4uXMFoD5u3B1nQVuzlc-188" value="autoware_hdd_&lt;br&gt;monitor" style="rounded=1;whiteSpace=wrap;html=1;comic=0;fillColor=#f8cecc;strokeColor=#b85450;sketch=0;" parent="1" vertex="1">
          <mxGeometry x="649" y="798.5" width="120" height="40" as="geometry" />
        </mxCell>
        <mxCell id="T4uXMFoD5u3B1nQVuzlc-189" value="autoware_net_&lt;br&gt;monitor" style="rounded=1;whiteSpace=wrap;html=1;comic=0;fillColor=#f8cecc;strokeColor=#b85450;sketch=0;" parent="1" vertex="1">
          <mxGeometry x="649" y="849" width="120" height="40" as="geometry" />
        </mxCell>
        <mxCell id="T4uXMFoD5u3B1nQVuzlc-190" value="autoware_ntp_&lt;br&gt;monitor" style="rounded=1;whiteSpace=wrap;html=1;comic=0;fillColor=#f8cecc;strokeColor=#b85450;sketch=0;" parent="1" vertex="1">
          <mxGeometry x="649" y="904" width="120" height="40" as="geometry" />
        </mxCell>
        <mxCell id="T4uXMFoD5u3B1nQVuzlc-191" value="/system/emergency/hazard_status" style="edgeStyle=orthogonalEdgeStyle;rounded=0;comic=0;orthogonalLoop=1;jettySize=auto;html=1;entryX=0.5;entryY=1;entryDx=0;entryDy=0;endArrow=classic;endFill=1;exitX=0.5;exitY=0;exitDx=0;exitDy=0;" parent="1" source="T4uXMFoD5u3B1nQVuzlc-192" target="T4uXMFoD5u3B1nQVuzlc-194" edge="1">
          <mxGeometry x="-0.0769" relative="1" as="geometry">
            <mxPoint as="offset" />
            <Array as="points">
              <mxPoint x="370" y="710" />
              <mxPoint x="370" y="710" />
            </Array>
          </mxGeometry>
        </mxCell>
        <UserObject label="autoware_error_&lt;br&gt;monitor" link="https://github.com/tier4/autoware.iv/tree/master/system/autoware_error_monitor" id="T4uXMFoD5u3B1nQVuzlc-192">
          <mxCell style="rounded=1;whiteSpace=wrap;html=1;comic=0;fillColor=#f8cecc;strokeColor=#b85450;sketch=0;" parent="1" vertex="1">
            <mxGeometry x="310" y="767" width="120" height="90" as="geometry" />
          </mxCell>
        </UserObject>
        <mxCell id="T4uXMFoD5u3B1nQVuzlc-193" value="&lt;div&gt;/system/emergency/control_cmd [AckermannControlCommand]&lt;/div&gt;&lt;div&gt;/system/emergency/gear_cmd [GearCommand]&lt;/div&gt;&lt;div&gt;/system/emergency/hazard_lights_cmd [HazardLightsCommand]&lt;/div&gt;/system/emergency/emergency_state&amp;nbsp;[EmergencyStateStamped]" style="edgeStyle=orthogonalEdgeStyle;rounded=0;comic=0;orthogonalLoop=1;jettySize=auto;html=1;endArrow=classic;endFill=1;exitX=0.5;exitY=0;exitDx=0;exitDy=0;align=left;" parent="1" source="T4uXMFoD5u3B1nQVuzlc-194" edge="1">
          <mxGeometry x="0.4611" y="80" relative="1" as="geometry">
            <mxPoint as="offset" />
            <mxPoint x="230" y="490" as="targetPoint" />
            <Array as="points">
              <mxPoint x="370" y="490" />
            </Array>
          </mxGeometry>
        </mxCell>
        <UserObject label="emergency_handler" link="https://github.com/tier4/autoware.iv/tree/master/system/emergency_handler" tooltip="なにかしてます" id="T4uXMFoD5u3B1nQVuzlc-194">
          <mxCell style="rounded=1;whiteSpace=wrap;html=1;comic=0;fillColor=#f8cecc;strokeColor=#b85450;sketch=0;" parent="1" vertex="1">
            <mxGeometry x="310" y="654" width="120" height="40" as="geometry" />
          </mxCell>
        </UserObject>
        <mxCell id="T4uXMFoD5u3B1nQVuzlc-195" value="" style="rounded=1;whiteSpace=wrap;html=1;dashed=1;fillColor=none;strokeWidth=3;comic=0;" parent="1" vertex="1">
          <mxGeometry x="-390" y="-800" width="480" height="527.5" as="geometry" />
        </mxCell>
        <mxCell id="T4uXMFoD5u3B1nQVuzlc-199" value="&lt;font style=&quot;font-size: 14px;&quot;&gt;&lt;b style=&quot;&quot;&gt;&amp;lt;PLANNING&amp;gt;&lt;/b&gt;&lt;/font&gt;" style="text;html=1;strokeColor=none;fillColor=none;align=center;verticalAlign=middle;whiteSpace=wrap;rounded=0;dashed=1;comic=0;" parent="1" vertex="1">
          <mxGeometry x="-30" y="-775" width="80" height="30" as="geometry" />
        </mxCell>
        <mxCell id="T4uXMFoD5u3B1nQVuzlc-202" style="edgeStyle=orthogonalEdgeStyle;rounded=0;orthogonalLoop=1;jettySize=auto;html=1;exitX=0.5;exitY=1;exitDx=0;exitDy=0;entryX=0.5;entryY=0;entryDx=0;entryDy=0;" parent="1" source="T4uXMFoD5u3B1nQVuzlc-125" target="T4uXMFoD5u3B1nQVuzlc-158" edge="1">
          <mxGeometry relative="1" as="geometry">
            <Array as="points">
              <mxPoint x="-180" y="-160" />
              <mxPoint x="-300" y="-160" />
            </Array>
          </mxGeometry>
        </mxCell>
        <mxCell id="T4uXMFoD5u3B1nQVuzlc-201" style="edgeStyle=orthogonalEdgeStyle;rounded=0;orthogonalLoop=1;jettySize=auto;html=1;exitX=0.5;exitY=1;exitDx=0;exitDy=0;entryX=0.5;entryY=0;entryDx=0;entryDy=0;" parent="1" source="T4uXMFoD5u3B1nQVuzlc-125" target="T4uXMFoD5u3B1nQVuzlc-159" edge="1">
          <mxGeometry relative="1" as="geometry">
            <Array as="points">
              <mxPoint x="-180" y="-160" />
              <mxPoint x="-20" y="-160" />
            </Array>
          </mxGeometry>
        </mxCell>
        <mxCell id="T4uXMFoD5u3B1nQVuzlc-206" value="" style="rounded=1;whiteSpace=wrap;html=1;dashed=1;fillColor=none;strokeWidth=3;comic=0;" parent="1" vertex="1">
          <mxGeometry x="-530" y="-237.5" width="950" height="757.5" as="geometry" />
        </mxCell>
        <mxCell id="T4uXMFoD5u3B1nQVuzlc-207" value="&amp;lt;CAN&amp;gt;" style="edgeStyle=orthogonalEdgeStyle;rounded=0;comic=0;orthogonalLoop=1;jettySize=auto;html=1;fillColor=#f5f5f5;strokeColor=#666666;exitX=0.5;exitY=1;exitDx=0;exitDy=0;startArrow=classic;startFill=1;" parent="1" source="T4uXMFoD5u3B1nQVuzlc-182" target="T4uXMFoD5u3B1nQVuzlc-181" edge="1">
          <mxGeometry x="0.1429" relative="1" as="geometry">
            <mxPoint y="1010" as="sourcePoint" />
            <mxPoint as="offset" />
            <mxPoint y="1085" as="targetPoint" />
          </mxGeometry>
        </mxCell>
        <mxCell id="T4uXMFoD5u3B1nQVuzlc-212" value="&lt;b&gt;&lt;font style=&quot;font-size: 14px;&quot;&gt;&amp;lt;CONTROL&amp;gt;&lt;/font&gt;&lt;/b&gt;" style="text;html=1;strokeColor=none;fillColor=none;align=center;verticalAlign=middle;whiteSpace=wrap;rounded=0;dashed=1;comic=0;" parent="1" vertex="1">
          <mxGeometry x="220" y="-220" width="80" height="20" as="geometry" />
        </mxCell>
        <mxCell id="dgDgLwtVGSBD31zoPSUn-11" value="&lt;font style=&quot;font-size: 14px;&quot;&gt;&lt;b style=&quot;&quot;&gt;&amp;lt;SENSING&amp;gt;&lt;/b&gt;&lt;/font&gt;" style="text;html=1;strokeColor=none;fillColor=none;align=center;verticalAlign=middle;whiteSpace=wrap;rounded=0;dashed=1;comic=0;" vertex="1" parent="1">
          <mxGeometry x="-1710" y="-810" width="80" height="30" as="geometry" />
        </mxCell>
        <mxCell id="dgDgLwtVGSBD31zoPSUn-12" value="" style="rounded=1;whiteSpace=wrap;html=1;dashed=1;fillColor=none;strokeWidth=3;comic=0;" vertex="1" parent="1">
          <mxGeometry x="-2310" y="110" width="830" height="780" as="geometry" />
        </mxCell>
        <mxCell id="dgDgLwtVGSBD31zoPSUn-14" value="&lt;font style=&quot;font-size: 14px;&quot;&gt;&lt;b style=&quot;&quot;&gt;&amp;lt;LOCALIZATION&amp;gt;&lt;/b&gt;&lt;/font&gt;" style="text;html=1;strokeColor=none;fillColor=none;align=center;verticalAlign=middle;whiteSpace=wrap;rounded=0;dashed=1;comic=0;" vertex="1" parent="1">
          <mxGeometry x="-1900" y="130" width="80" height="30" as="geometry" />
        </mxCell>
        <mxCell id="dgDgLwtVGSBD31zoPSUn-10" value="" style="rounded=1;whiteSpace=wrap;html=1;dashed=1;fillColor=none;strokeWidth=3;comic=0;" vertex="1" parent="1">
          <mxGeometry x="-2320" y="-820" width="810" height="757.5" as="geometry" />
        </mxCell>
        <mxCell id="dgDgLwtVGSBD31zoPSUn-18" style="edgeStyle=orthogonalEdgeStyle;rounded=0;orthogonalLoop=1;jettySize=auto;html=1;exitX=1;exitY=0.5;exitDx=0;exitDy=0;entryX=0;entryY=0.5;entryDx=0;entryDy=0;fontSize=14;fontColor=#000000;" edge="1" parent="1" source="T4uXMFoD5u3B1nQVuzlc-9" target="T4uXMFoD5u3B1nQVuzlc-78">
          <mxGeometry relative="1" as="geometry">
            <Array as="points">
              <mxPoint x="-1630" y="-395" />
              <mxPoint x="-1630" y="-20" />
              <mxPoint x="-1280" y="-20" />
              <mxPoint x="-1280" y="460" />
            </Array>
          </mxGeometry>
        </mxCell>
        <mxCell id="dgDgLwtVGSBD31zoPSUn-19" value="&lt;font style=&quot;font-size: 12px;&quot;&gt;/sensing/top/rectified/pointcloud&lt;/font&gt;" style="edgeLabel;html=1;align=center;verticalAlign=middle;resizable=0;points=[];fontSize=14;fontColor=#000000;" vertex="1" connectable="0" parent="dgDgLwtVGSBD31zoPSUn-18">
          <mxGeometry x="-0.0235" y="-3" relative="1" as="geometry">
            <mxPoint as="offset" />
          </mxGeometry>
        </mxCell>
        <mxCell id="dgDgLwtVGSBD31zoPSUn-22" value="&lt;font style=&quot;font-size: 14px;&quot;&gt;&lt;b style=&quot;&quot;&gt;&amp;lt;PERCEPTION&amp;gt;&lt;/b&gt;&lt;/font&gt;" style="text;html=1;strokeColor=none;fillColor=none;align=center;verticalAlign=middle;whiteSpace=wrap;rounded=0;dashed=1;comic=0;" vertex="1" parent="1">
          <mxGeometry x="-720" y="-740" width="80" height="30" as="geometry" />
        </mxCell>
        <mxCell id="dgDgLwtVGSBD31zoPSUn-23" value="" style="rounded=1;whiteSpace=wrap;html=1;dashed=1;fillColor=none;strokeWidth=3;comic=0;" vertex="1" parent="1">
          <mxGeometry x="-520" y="570" width="810" height="380" as="geometry" />
        </mxCell>
        <mxCell id="dgDgLwtVGSBD31zoPSUn-25" value="&lt;b&gt;&lt;font style=&quot;font-size: 14px;&quot;&gt;&amp;lt;VEHICLE&amp;gt;&lt;/font&gt;&lt;/b&gt;" style="text;html=1;strokeColor=none;fillColor=none;align=center;verticalAlign=middle;whiteSpace=wrap;rounded=0;dashed=1;comic=0;" vertex="1" parent="1">
          <mxGeometry x="130" y="724" width="80" height="20" as="geometry" />
        </mxCell>
      </root>
    </mxGraphModel>
  </diagram>
</mxfile>
